<mxfile host="65bd71144e">
    <diagram name="Page-1" id="Hqz_XmtIG4gEreJNC-Ph">
        <mxGraphModel dx="2213" dy="1985" grid="1" gridSize="10" guides="1" tooltips="1" connect="1" arrows="1" fold="1" page="1" pageScale="1" pageWidth="827" pageHeight="1169" math="0" shadow="0">
            <root>
                <mxCell id="0"/>
                <mxCell id="1" parent="0"/>
                <mxCell id="190" value="" style="rounded=1;whiteSpace=wrap;html=1;strokeColor=default;fillColor=#FFFFFF;perimeterSpacing=10;strokeWidth=2;arcSize=50;" vertex="1" parent="1">
                    <mxGeometry x="892" y="476.29" width="208" height="30" as="geometry"/>
                </mxCell>
                <mxCell id="189" value="" style="rounded=1;whiteSpace=wrap;html=1;strokeColor=default;fillColor=#FFFFFF;perimeterSpacing=10;strokeWidth=2;arcSize=50;" vertex="1" parent="1">
                    <mxGeometry x="-210" y="480" width="200" height="30" as="geometry"/>
                </mxCell>
                <mxCell id="179" value="" style="rounded=0;whiteSpace=wrap;html=1;strokeColor=default;fillColor=#FFFFFF;" vertex="1" parent="1">
                    <mxGeometry x="70" y="-30" width="720" height="250" as="geometry"/>
                </mxCell>
                <mxCell id="185" style="edgeStyle=none;jumpStyle=arc;jumpSize=12;html=1;entryX=0.55;entryY=0.95;entryDx=0;entryDy=0;entryPerimeter=0;strokeColor=#000000;strokeWidth=2;startArrow=oval;startFill=1;endArrow=oval;endFill=1;exitX=0.499;exitY=-0.028;exitDx=0;exitDy=0;exitPerimeter=0;" edge="1" parent="1" source="KxTmls-7jIh_fME9fBzn-12" target="184">
                    <mxGeometry relative="1" as="geometry"/>
                </mxCell>
                <mxCell id="183" style="edgeStyle=none;jumpStyle=arc;jumpSize=12;html=1;entryX=0.55;entryY=0.95;entryDx=0;entryDy=0;entryPerimeter=0;strokeColor=#000000;strokeWidth=2;startArrow=oval;startFill=1;endArrow=oval;endFill=1;exitX=0.452;exitY=0.019;exitDx=0;exitDy=0;exitPerimeter=0;" edge="1" parent="1" source="KxTmls-7jIh_fME9fBzn-6" target="182">
                    <mxGeometry relative="1" as="geometry"/>
                </mxCell>
                <mxCell id="159" style="edgeStyle=none;jumpStyle=arc;jumpSize=12;html=1;entryX=0;entryY=0.339;entryDx=0;entryDy=0;entryPerimeter=0;strokeColor=#000000;strokeWidth=2;startArrow=oval;startFill=1;endArrow=oval;endFill=1;exitX=1.031;exitY=0.341;exitDx=0;exitDy=0;exitPerimeter=0;" edge="1" parent="1" source="144" target="150">
                    <mxGeometry relative="1" as="geometry"/>
                </mxCell>
                <mxCell id="154" style="edgeStyle=none;jumpStyle=arc;jumpSize=12;html=1;entryX=0.976;entryY=0.548;entryDx=0;entryDy=0;entryPerimeter=0;strokeColor=#000000;strokeWidth=2;startArrow=oval;startFill=1;endArrow=oval;endFill=1;exitX=0.089;exitY=0.002;exitDx=0;exitDy=0;exitPerimeter=0;" edge="1" parent="1" source="55" target="144">
                    <mxGeometry relative="1" as="geometry"/>
                </mxCell>
                <mxCell id="155" style="edgeStyle=none;jumpStyle=arc;jumpSize=12;html=1;entryX=-0.027;entryY=0.562;entryDx=0;entryDy=0;entryPerimeter=0;strokeColor=#000000;strokeWidth=2;startArrow=oval;startFill=1;endArrow=oval;endFill=1;" edge="1" parent="1" target="150">
                    <mxGeometry relative="1" as="geometry">
                        <mxPoint x="650" y="580" as="sourcePoint"/>
                    </mxGeometry>
                </mxCell>
                <mxCell id="139" style="edgeStyle=none;jumpStyle=arc;jumpSize=12;html=1;entryX=0.593;entryY=0.017;entryDx=0;entryDy=0;entryPerimeter=0;strokeColor=#000000;strokeWidth=2;startArrow=oval;startFill=1;endArrow=oval;endFill=1;exitX=0.339;exitY=1.025;exitDx=0;exitDy=0;exitPerimeter=0;" edge="1" parent="1" source="H0jQTdkzcEfSwbVP08a--29" target="48">
                    <mxGeometry relative="1" as="geometry"/>
                </mxCell>
                <mxCell id="136" style="edgeStyle=none;jumpStyle=arc;jumpSize=12;html=1;entryX=0.381;entryY=0.017;entryDx=0;entryDy=0;entryPerimeter=0;strokeColor=#000000;strokeWidth=2;startArrow=oval;startFill=1;endArrow=oval;endFill=1;exitX=0.364;exitY=0.992;exitDx=0;exitDy=0;exitPerimeter=0;" edge="1" parent="1" source="55" target="48">
                    <mxGeometry relative="1" as="geometry"/>
                </mxCell>
                <mxCell id="137" style="edgeStyle=none;jumpStyle=arc;jumpSize=12;html=1;entryX=0.356;entryY=-0.017;entryDx=0;entryDy=0;entryPerimeter=0;strokeColor=#000000;strokeWidth=2;startArrow=oval;startFill=1;endArrow=oval;endFill=1;exitX=0.568;exitY=1;exitDx=0;exitDy=0;exitPerimeter=0;" edge="1" parent="1" source="55" target="H0jQTdkzcEfSwbVP08a--18">
                    <mxGeometry relative="1" as="geometry">
                        <mxPoint x="280" y="634" as="sourcePoint"/>
                    </mxGeometry>
                </mxCell>
                <mxCell id="138" style="edgeStyle=none;jumpStyle=arc;jumpSize=12;html=1;entryX=0.644;entryY=0;entryDx=0;entryDy=0;entryPerimeter=0;strokeColor=#000000;strokeWidth=2;startArrow=oval;startFill=1;endArrow=oval;endFill=1;exitX=0.559;exitY=1.017;exitDx=0;exitDy=0;exitPerimeter=0;" edge="1" parent="1" source="H0jQTdkzcEfSwbVP08a--31" target="H0jQTdkzcEfSwbVP08a--18">
                    <mxGeometry relative="1" as="geometry"/>
                </mxCell>
                <mxCell id="117" style="edgeStyle=none;jumpStyle=arc;jumpSize=12;html=1;entryX=0;entryY=0.333;entryDx=0;entryDy=0;entryPerimeter=0;strokeColor=#000000;strokeWidth=2;startArrow=oval;startFill=1;endArrow=oval;endFill=1;exitX=0.994;exitY=0.356;exitDx=0;exitDy=0;exitPerimeter=0;" edge="1" parent="1" source="55" target="H0jQTdkzcEfSwbVP08a--31">
                    <mxGeometry relative="1" as="geometry"/>
                </mxCell>
                <mxCell id="118" style="edgeStyle=none;jumpStyle=arc;jumpSize=12;html=1;entryX=-0.023;entryY=0.548;entryDx=0;entryDy=0;entryPerimeter=0;strokeColor=#000000;strokeWidth=2;startArrow=oval;startFill=1;endArrow=oval;endFill=1;" edge="1" parent="1" target="H0jQTdkzcEfSwbVP08a--31">
                    <mxGeometry relative="1" as="geometry">
                        <mxPoint x="280" y="612" as="sourcePoint"/>
                    </mxGeometry>
                </mxCell>
                <mxCell id="26" style="edgeStyle=none;html=1;entryX=0.508;entryY=1.045;entryDx=0;entryDy=0;entryPerimeter=0;strokeWidth=2;startArrow=oval;startFill=1;endArrow=oval;endFill=1;exitX=0.53;exitY=0.067;exitDx=0;exitDy=0;exitPerimeter=0;strokeColor=#000000;" edge="1" parent="1" source="H0jQTdkzcEfSwbVP08a--58" target="KxTmls-7jIh_fME9fBzn-6">
                    <mxGeometry relative="1" as="geometry"/>
                </mxCell>
                <mxCell id="27" style="edgeStyle=none;html=1;entryX=0.514;entryY=1.028;entryDx=0;entryDy=0;entryPerimeter=0;strokeWidth=2;startArrow=oval;startFill=1;endArrow=oval;endFill=1;strokeColor=#000000;" edge="1" parent="1" source="H0jQTdkzcEfSwbVP08a--98" target="KxTmls-7jIh_fME9fBzn-12">
                    <mxGeometry relative="1" as="geometry"/>
                </mxCell>
                <mxCell id="29" style="edgeStyle=none;html=1;entryX=0.678;entryY=1.017;entryDx=0;entryDy=0;entryPerimeter=0;strokeWidth=2;startArrow=oval;startFill=1;endArrow=oval;endFill=1;jumpStyle=arc;jumpSize=12;exitX=0.53;exitY=-0.133;exitDx=0;exitDy=0;exitPerimeter=0;strokeColor=#000000;" edge="1" parent="1" source="H0jQTdkzcEfSwbVP08a--96" target="KxTmls-7jIh_fME9fBzn-6">
                    <mxGeometry relative="1" as="geometry"/>
                </mxCell>
                <mxCell id="28" style="edgeStyle=none;html=1;strokeWidth=2;startArrow=oval;startFill=1;endArrow=oval;endFill=1;exitX=0.409;exitY=0;exitDx=0;exitDy=0;exitPerimeter=0;entryX=0.266;entryY=1.034;entryDx=0;entryDy=0;entryPerimeter=0;strokeColor=#000000;" edge="1" parent="1" source="H0jQTdkzcEfSwbVP08a--60" target="KxTmls-7jIh_fME9fBzn-12">
                    <mxGeometry relative="1" as="geometry">
                        <mxPoint x="640" y="160" as="targetPoint"/>
                    </mxGeometry>
                </mxCell>
                <mxCell id="62" style="edgeStyle=none;jumpStyle=arc;jumpSize=12;html=1;entryX=0.508;entryY=0.011;entryDx=0;entryDy=0;entryPerimeter=0;strokeWidth=2;startArrow=oval;startFill=1;endArrow=oval;endFill=1;" edge="1" parent="1" source="H0jQTdkzcEfSwbVP08a--88" target="H0jQTdkzcEfSwbVP08a--31">
                    <mxGeometry relative="1" as="geometry"/>
                </mxCell>
                <mxCell id="61" style="edgeStyle=none;jumpStyle=arc;jumpSize=12;html=1;entryX=0.605;entryY=0;entryDx=0;entryDy=0;entryPerimeter=0;strokeWidth=2;startArrow=oval;startFill=1;endArrow=oval;endFill=1;" edge="1" parent="1" source="H0jQTdkzcEfSwbVP08a--124" target="55">
                    <mxGeometry relative="1" as="geometry"/>
                </mxCell>
                <mxCell id="60" style="edgeStyle=none;jumpStyle=arc;jumpSize=12;html=1;strokeWidth=2;startArrow=oval;startFill=1;endArrow=oval;endFill=1;" edge="1" parent="1" source="H0jQTdkzcEfSwbVP08a--126">
                    <mxGeometry relative="1" as="geometry">
                        <mxPoint x="640" y="580" as="targetPoint"/>
                    </mxGeometry>
                </mxCell>
                <mxCell id="H0jQTdkzcEfSwbVP08a--16" style="vsdxID=5;fillColor=none;gradientColor=none;strokeColor=none;points=[[0.5,0,0],[0.5,1,0],[1,0.5,0],[0,0.5,0],[0.5,0.47,0]];labelBackgroundColor=none;rounded=0;html=1;whiteSpace=wrap;" vertex="1" parent="1">
                    <mxGeometry x="542" y="860" width="59" height="59" as="geometry"/>
                </mxCell>
                <mxCell id="H0jQTdkzcEfSwbVP08a--17" style="vsdxID=6;fillColor=#12537c;gradientColor=none;shape=stencil(nZBLDoAgDERP0z3SIyjew0SURgSD+Lu9kMZoXLhwN9O+tukAlrNpJg1SzDH4QW/URgNYgZTkjA4UkwJUgGXng+6DX1zLfmoymdXo17xh5zmRJ6Q42BWCfc2oJfdAr+Yv+AP9Cb7OJ3H/2JG1HNGz/84klThPVCc=);strokeColor=none;spacingTop=-3;spacingBottom=-3;spacingLeft=-3;spacingRight=-3;points=[];labelBackgroundColor=none;rounded=0;html=1;whiteSpace=wrap;" vertex="1" parent="H0jQTdkzcEfSwbVP08a--16">
                    <mxGeometry width="59" height="59" as="geometry"/>
                </mxCell>
                <mxCell id="H0jQTdkzcEfSwbVP08a--18" style="vsdxID=7;fillColor=none;gradientColor=none;shape=stencil(nZBLDoAgDERP0z3SIyjew0SURgSD+Lu9kMZoXLhwN9O+tukAlrNpJg1SzDH4QW/URgNYgZTkjA4UkwJUgGXng+6DX1zLfmoymdXo17xh5zmRJ6Q42BWCfc2oJfdAr+Yv+AP9Cb7OJ3H/2JG1HNGz/84klThPVCc=);strokeColor=#bcbec0;strokeWidth=2;spacingTop=-3;spacingBottom=-3;spacingLeft=-3;spacingRight=-3;points=[];labelBackgroundColor=none;rounded=0;html=1;whiteSpace=wrap;" vertex="1" parent="H0jQTdkzcEfSwbVP08a--16">
                    <mxGeometry width="59" height="59" as="geometry"/>
                </mxCell>
                <mxCell id="H0jQTdkzcEfSwbVP08a--19" style="vsdxID=8;fillColor=#FFFFFF;gradientColor=none;shape=stencil(nZLLDoMgEEW/hi0ZGPGxtvY/TMRKSsWg9vH3ldKmWkOi3Q2Xe4YBLsG8b8pOEg79YM1Z3lQ1NAQPhHPVNtKqYaoIFgTz2lh5smZsK7/uSud01cVcXYe75+KEsshRHB5vJaZZ8lKOHtCqnQHwvxkZhThsXo+yARALAMLmFKlIF2Ye0SwLAwyW0wugwPb0T8Seu36O22hfPfxUfP+4Vlr7iMz3fzMxST5PWDwB);strokeColor=none;spacingTop=-3;spacingBottom=-3;spacingLeft=-3;spacingRight=-3;points=[];labelBackgroundColor=none;rounded=0;html=1;whiteSpace=wrap;" vertex="1" parent="H0jQTdkzcEfSwbVP08a--16">
                    <mxGeometry x="27" y="9" width="26" height="10" as="geometry"/>
                </mxCell>
                <mxCell id="H0jQTdkzcEfSwbVP08a--20" style="vsdxID=9;fillColor=#FFFFFF;gradientColor=none;shape=stencil(nZLdEoIgEIWfhltmYUPt2uw9nBGDycRB7Oftg6hJc2ysu8PyncMCSzDvVdlJwqF31hzlRVdOEdwRznWrpNXOK4IFwbw2Vh6sGdoqrrsykEGdzDkkXKMvSSnbBBeH27OS0G36qOyjodHtyAD/w8goJMvwvJUVBjExwDKcIRXZBOZimWYwbV0ABfZLePolfH7R13Er8dmre/H+4Fo3TZyP8f7nQPhSHCYs7g==);strokeColor=none;spacingTop=-3;spacingBottom=-3;spacingLeft=-3;spacingRight=-3;points=[];labelBackgroundColor=none;rounded=0;html=1;whiteSpace=wrap;" vertex="1" parent="H0jQTdkzcEfSwbVP08a--16">
                    <mxGeometry x="27" y="27" width="26" height="10" as="geometry"/>
                </mxCell>
                <mxCell id="H0jQTdkzcEfSwbVP08a--21" style="vsdxID=10;fillColor=#FFFFFF;gradientColor=none;shape=stencil(pZLdDoIwDIWfZrdLaQHZNeJ7kDDcIjIy8O/tZU4jiBCJd2fd+dqTtIzSVuWNZAhtZ81BXnTRKUZbhqhrJa3uesUoY5SWxsq9Nae68O8md06njubsOlw9R8iT2FEIt2eFONCjsvNApesBEAD8Y48TLsJ5+zTOauA18XucmIc4sm9CLsQ8ME4fAYdgTXeMFoFp+oXsP6yqF+9Fl7qq/J0M/z8Poy/5o6LsDg==);strokeColor=none;spacingTop=-3;spacingBottom=-3;spacingLeft=-3;spacingRight=-3;points=[];labelBackgroundColor=none;rounded=0;html=1;whiteSpace=wrap;" vertex="1" parent="H0jQTdkzcEfSwbVP08a--16">
                    <mxGeometry x="6" y="36" width="26" height="10" as="geometry"/>
                </mxCell>
                <mxCell id="H0jQTdkzcEfSwbVP08a--22" style="vsdxID=11;fillColor=#FFFFFF;gradientColor=none;shape=stencil(pVLLDoIwEPyaXpu6i5WeEf+DhCKNlZICPv7e1moE0UbibTqd2Z1kh2DW1UUrCbCut+Ygz6rsa4JbAqCaWlrVO0QwJ5hVxsq9NUNThndbeKVHR3PyEy7Bh0BT7l3Arg8GKcM7swsGrZqRYcXYP3KeUhGRz+MsNjw3fo7DaQIT+SahQnw3TNMnIiqeT4f1kuiR4D/cyYHXlSuldSjJ+P+9FY4KjcL8Bg==);strokeColor=none;spacingTop=-3;spacingBottom=-3;spacingLeft=-3;spacingRight=-3;points=[];labelBackgroundColor=none;rounded=0;html=1;whiteSpace=wrap;" vertex="1" parent="H0jQTdkzcEfSwbVP08a--16">
                    <mxGeometry x="6" y="18" width="26" height="10" as="geometry"/>
                </mxCell>
                <mxCell id="H0jQTdkzcEfSwbVP08a--29" style="vsdxID=5;fillColor=none;gradientColor=none;strokeColor=none;points=[[0.5,0,0],[0,0.5,0],[1,0.5,0],[0.5,1,0],[0.5,0.5,0]];labelBackgroundColor=none;rounded=0;html=1;whiteSpace=wrap;" vertex="1" parent="1">
                    <mxGeometry x="601" y="580" width="59" height="59" as="geometry"/>
                </mxCell>
                <mxCell id="H0jQTdkzcEfSwbVP08a--30" style="vsdxID=6;fillColor=#12537c;gradientColor=none;shape=stencil(nZBLDoAgDERP0z3SIyjew0SURgSD+Lu9kMZoXLhwN9O+tukAlrNpJg1SzDH4QW/URgNYgZTkjA4UkwJUgGXng+6DX1zLfmoymdXo17xh5zmRJ6Q42BWCfc2oJfdAr+Yv+AP9Cb7OJ3H/2JG1HNGz/84klThPVCc=);strokeColor=none;spacingTop=-3;spacingBottom=-3;spacingLeft=-3;spacingRight=-3;points=[];labelBackgroundColor=none;rounded=0;html=1;whiteSpace=wrap;" vertex="1" parent="H0jQTdkzcEfSwbVP08a--29">
                    <mxGeometry width="59" height="59" as="geometry"/>
                </mxCell>
                <mxCell id="H0jQTdkzcEfSwbVP08a--31" style="vsdxID=7;fillColor=none;gradientColor=none;shape=stencil(nZBLDoAgDERP0z3SIyjew0SURgSD+Lu9kMZoXLhwN9O+tukAlrNpJg1SzDH4QW/URgNYgZTkjA4UkwJUgGXng+6DX1zLfmoymdXo17xh5zmRJ6Q42BWCfc2oJfdAr+Yv+AP9Cb7OJ3H/2JG1HNGz/84klThPVCc=);strokeColor=#bcbec0;strokeWidth=2;spacingTop=-3;spacingBottom=-3;spacingLeft=-3;spacingRight=-3;points=[];labelBackgroundColor=none;rounded=0;html=1;whiteSpace=wrap;" vertex="1" parent="H0jQTdkzcEfSwbVP08a--29">
                    <mxGeometry width="59" height="59" as="geometry"/>
                </mxCell>
                <mxCell id="H0jQTdkzcEfSwbVP08a--32" style="vsdxID=8;fillColor=#12537c;gradientColor=none;shape=stencil(lZLbbsIwDIafJreVDzleIgbvgUZZqzGKQoHy9mubis4R1USu7MS/88X5Fa8v1e5cKoJLG5vv8l7v20rxhyKqT1UZ67aPFG8Urw9NLL9icz3tU37eDZVD9NPchg5d0hkYJASPlCKkfJtqP68xFWM6dq4wGtk7ZrDeA05ifKoL+LOm445kc3jQ3I6tJ+s0kzdTNefVLFBHNFi9oJsV0wZRoS2jYzLWoQlB8ozXBwQHbIO3kg0kjclg/mMZrwYfKFgG1JILJEc2lUwKoCXKu2PJhvLy1R0tTMxJtqUfXpiSsNMI18ezFQ/18Zic/HRcH+TW7beS7XnzCw==);strokeColor=none;spacingTop=-3;spacingBottom=-3;spacingLeft=-3;spacingRight=-3;points=[];labelBackgroundColor=none;rounded=0;html=1;whiteSpace=wrap;" vertex="1" parent="H0jQTdkzcEfSwbVP08a--29">
                    <mxGeometry x="6" y="6" width="46" height="46" as="geometry"/>
                </mxCell>
                <mxCell id="H0jQTdkzcEfSwbVP08a--33" style="vsdxID=9;fillColor=none;gradientColor=none;shape=stencil(lZLbbsIwDIafJreVDzleIgbvgUZZqzGKQoHy9mubis4R1USu7MS/88X5Fa8v1e5cKoJLG5vv8l7v20rxhyKqT1UZ67aPFG8Urw9NLL9icz3tU37eDZVD9NPchg5d0hkYJASPlCKkfJtqP68xFWM6dq4wGtk7ZrDeA05ifKoL+LOm445kc3jQ3I6tJ+s0kzdTNefVLFBHNFi9oJsV0wZRoS2jYzLWoQlB8ozXBwQHbIO3kg0kjclg/mMZrwYfKFgG1JILJEc2lUwKoCXKu2PJhvLy1R0tTMxJtqUfXpiSsNMI18ezFQ/18Zic/HRcH+TW7beS7XnzCw==);strokeColor=#FFFFFF;strokeWidth=2;spacingTop=-3;spacingBottom=-3;spacingLeft=-3;spacingRight=-3;points=[];labelBackgroundColor=none;rounded=0;html=1;whiteSpace=wrap;" vertex="1" parent="H0jQTdkzcEfSwbVP08a--29">
                    <mxGeometry x="6" y="6" width="46" height="46" as="geometry"/>
                </mxCell>
                <mxCell id="H0jQTdkzcEfSwbVP08a--34" style="vsdxID=10;fillColor=#FFFFFF;gradientColor=none;shape=stencil(rZjbcuMgDEC/xq8aQIjLc7f7H51p0ng2m3TS7G7794W6ngRjC2u8bw7oSIBukA4f3g5Pr7vOqLfr5fxr969/vh46/NEZ058Ou0t/TV8dPnb4sD9fdi+X85/T8/D79SlL5q/f579Zw/vAWYRAmTLq43uEIMavkZ8DcOxP94AC6ySABu83yaMD55flkSDobYB2EAwDqHF6LUDgQgEEsIx4BDvRD5FRn1xAWMgrRpgA4/q1kAJjJXu1ARSKAAItOs0asBoQRUAjpsVJ0AbKNAsIuowIG0HpZQszAL8kChBlgAXUGwELntnDDMA7rgYMREbeITi7ST6XCifxwgqgzDbUEJblowaKEgMxpVsJ5ILMOCF6sDR1AjHpJraglar0cwuqtmwdIFOvayeQBsPs4H8k2xQo0xk9qBJIpxYYCzOAH4v4PBAAnQgQWxDvoeqbYsARKCa4cyPYCHgFmstPsFP9zBGVce1SGjCdc6qaaIzzlUtPrdcz+meAVO1IBBBrob7atYCq0cqBFIWi3p+9IJHPMSpNgk1JU1aKui3fCvJ8j1KVBcetSGxgBTDZgq3OVLOhnYqnKePoVmDnl6TBBhFQXRTEAB9HtXwjstO0KHVqLzSA5CQnslADjWJa347EQMMLLlTvogaQ7tnl46IRejPZE8aRRT+Uz83xOrMUF7JcWAGkj9vrfN8fj8Pj/n5++ppPQ8M/Afj4CQ==);strokeColor=none;spacingTop=-3;spacingBottom=-3;spacingLeft=-3;spacingRight=-3;points=[];labelBackgroundColor=none;rounded=0;html=1;whiteSpace=wrap;" vertex="1" parent="H0jQTdkzcEfSwbVP08a--29">
                    <mxGeometry x="11" y="11" width="37" height="37" as="geometry"/>
                </mxCell>
                <mxCell id="H0jQTdkzcEfSwbVP08a--92" style="vsdxID=5;fillColor=none;gradientColor=none;strokeColor=none;spacingTop=-1;spacingBottom=-1;spacingLeft=-1;spacingRight=-1;points=[[0.5,1,0],[1,0.5,0],[0.5,0,0],[0,0.5,0],[0.5,0.49,0]];labelBackgroundColor=none;rounded=0;html=1;whiteSpace=wrap;" vertex="1" parent="1">
                    <mxGeometry x="520" y="280" width="128.26" height="112" as="geometry"/>
                </mxCell>
                <mxCell id="H0jQTdkzcEfSwbVP08a--93" style="vsdxID=6;fillColor=#808285;gradientColor=none;shape=stencil(nZBLDoAgDERP0z3SIyjew0SURgSD+Lu9kMZoXLhwN9O+tukAlrNpJg1SzDH4QW/URgNYgZTkjA4UkwJUgGXng+6DX1zLfmoymdXo17xh5zmRJ6Q42BWCfc2oJfdAr+Yv+AP9Cb7OJ3H/2JG1HNGz/84klThPVCc=);strokeColor=none;spacingTop=-1;spacingBottom=-1;spacingLeft=-1;spacingRight=-1;points=[];labelBackgroundColor=none;rounded=0;html=1;whiteSpace=wrap;" vertex="1" parent="H0jQTdkzcEfSwbVP08a--92">
                    <mxGeometry width="22" height="10" as="geometry"/>
                </mxCell>
                <mxCell id="H0jQTdkzcEfSwbVP08a--94" style="vsdxID=7;fillColor=none;gradientColor=none;shape=stencil(nZBLDoAgDERP0z3SIyjew0SURgSD+Lu9kMZoXLhwN9O+tukAlrNpJg1SzDH4QW/URgNYgZTkjA4UkwJUgGXng+6DX1zLfmoymdXo17xh5zmRJ6Q42BWCfc2oJfdAr+Yv+AP9Cb7OJ3H/2JG1HNGz/84klThPVCc=);strokeColor=#bcbec0;strokeWidth=2;spacingTop=-1;spacingBottom=-1;spacingLeft=-1;spacingRight=-1;points=[];labelBackgroundColor=none;rounded=0;html=1;whiteSpace=wrap;" vertex="1" parent="H0jQTdkzcEfSwbVP08a--92">
                    <mxGeometry width="22" height="10" as="geometry"/>
                </mxCell>
                <mxCell id="H0jQTdkzcEfSwbVP08a--95" style="vsdxID=8;fillColor=#808285;gradientColor=none;shape=stencil(nZBLDoAgDERP0z3SIyjew0SURgSD+Lu9kMZoXLhwN9O+tukAlrNpJg1SzDH4QW/URgNYgZTkjA4UkwJUgGXng+6DX1zLfmoymdXo17xh5zmRJ6Q42BWCfc2oJfdAr+Yv+AP9Cb7OJ3H/2JG1HNGz/84klThPVCc=);strokeColor=none;spacingTop=-1;spacingBottom=-1;spacingLeft=-1;spacingRight=-1;points=[];labelBackgroundColor=none;rounded=0;html=1;whiteSpace=wrap;" vertex="1" parent="H0jQTdkzcEfSwbVP08a--92">
                    <mxGeometry x="22" width="22" height="10" as="geometry"/>
                </mxCell>
                <mxCell id="H0jQTdkzcEfSwbVP08a--96" style="vsdxID=9;fillColor=none;gradientColor=none;shape=stencil(nZBLDoAgDERP0z3SIyjew0SURgSD+Lu9kMZoXLhwN9O+tukAlrNpJg1SzDH4QW/URgNYgZTkjA4UkwJUgGXng+6DX1zLfmoymdXo17xh5zmRJ6Q42BWCfc2oJfdAr+Yv+AP9Cb7OJ3H/2JG1HNGz/84klThPVCc=);strokeColor=#bcbec0;strokeWidth=2;spacingTop=-1;spacingBottom=-1;spacingLeft=-1;spacingRight=-1;points=[];labelBackgroundColor=none;rounded=0;html=1;whiteSpace=wrap;" vertex="1" parent="H0jQTdkzcEfSwbVP08a--92">
                    <mxGeometry x="22" width="22" height="10" as="geometry"/>
                </mxCell>
                <mxCell id="H0jQTdkzcEfSwbVP08a--97" style="vsdxID=10;fillColor=#808285;gradientColor=none;shape=stencil(nZBLDoAgDERP0z3SIyjew0SURgSD+Lu9kMZoXLhwN9O+tukAlrNpJg1SzDH4QW/URgNYgZTkjA4UkwJUgGXng+6DX1zLfmoymdXo17xh5zmRJ6Q42BWCfc2oJfdAr+Yv+AP9Cb7OJ3H/2JG1HNGz/84klThPVCc=);strokeColor=none;spacingTop=-1;spacingBottom=-1;spacingLeft=-1;spacingRight=-1;points=[];labelBackgroundColor=none;rounded=0;html=1;whiteSpace=wrap;" vertex="1" parent="H0jQTdkzcEfSwbVP08a--92">
                    <mxGeometry x="44" width="22" height="10" as="geometry"/>
                </mxCell>
                <mxCell id="H0jQTdkzcEfSwbVP08a--98" style="vsdxID=11;fillColor=none;gradientColor=none;shape=stencil(nZBLDoAgDERP0z3SIyjew0SURgSD+Lu9kMZoXLhwN9O+tukAlrNpJg1SzDH4QW/URgNYgZTkjA4UkwJUgGXng+6DX1zLfmoymdXo17xh5zmRJ6Q42BWCfc2oJfdAr+Yv+AP9Cb7OJ3H/2JG1HNGz/84klThPVCc=);strokeColor=#bcbec0;strokeWidth=2;spacingTop=-1;spacingBottom=-1;spacingLeft=-1;spacingRight=-1;points=[];labelBackgroundColor=none;rounded=0;html=1;whiteSpace=wrap;" vertex="1" parent="H0jQTdkzcEfSwbVP08a--92">
                    <mxGeometry x="44" width="22" height="10" as="geometry"/>
                </mxCell>
                <mxCell id="H0jQTdkzcEfSwbVP08a--99" style="vsdxID=12;fillColor=#4d4d4f;gradientColor=none;shape=stencil(nZBLDoAgDERP0z3SIyjew0SURgSD+Lu9kMZoXLhwN9O+tukAlrNpJg1SzDH4QW/URgNYgZTkjA4UkwJUgGXng+6DX1zLfmoymdXo17xh5zmRJ6Q42BWCfc2oJfdAr+Yv+AP9Cb7OJ3H/2JG1HNGz/84klThPVCc=);strokeColor=none;spacingTop=-1;spacingBottom=-1;spacingLeft=-1;spacingRight=-1;points=[];labelBackgroundColor=none;rounded=0;html=1;whiteSpace=wrap;" vertex="1" parent="H0jQTdkzcEfSwbVP08a--92">
                    <mxGeometry x="11" y="9" width="22" height="10" as="geometry"/>
                </mxCell>
                <mxCell id="H0jQTdkzcEfSwbVP08a--100" style="vsdxID=13;fillColor=none;gradientColor=none;shape=stencil(nZBLDoAgDERP0z3SIyjew0SURgSD+Lu9kMZoXLhwN9O+tukAlrNpJg1SzDH4QW/URgNYgZTkjA4UkwJUgGXng+6DX1zLfmoymdXo17xh5zmRJ6Q42BWCfc2oJfdAr+Yv+AP9Cb7OJ3H/2JG1HNGz/84klThPVCc=);strokeColor=#bcbec0;strokeWidth=2;spacingTop=-1;spacingBottom=-1;spacingLeft=-1;spacingRight=-1;points=[];labelBackgroundColor=none;rounded=0;html=1;whiteSpace=wrap;" vertex="1" parent="H0jQTdkzcEfSwbVP08a--92">
                    <mxGeometry x="11" y="9" width="22" height="10" as="geometry"/>
                </mxCell>
                <mxCell id="H0jQTdkzcEfSwbVP08a--101" style="vsdxID=14;fillColor=#808285;gradientColor=none;shape=stencil(nZBLDoAgDERP0z3SIyjew0SURgSD+Lu9kMZoXLhwN9O+tukAlrNpJg1SzDH4QW/URgNYgZTkjA4UkwJUgGXng+6DX1zLfmoymdXo17xh5zmRJ6Q42BWCfc2oJfdAr+Yv+AP9Cb7OJ3H/2JG1HNGz/84klThPVCc=);strokeColor=none;spacingTop=-1;spacingBottom=-1;spacingLeft=-1;spacingRight=-1;points=[];labelBackgroundColor=none;rounded=0;html=1;whiteSpace=wrap;" vertex="1" parent="H0jQTdkzcEfSwbVP08a--92">
                    <mxGeometry x="33" y="9" width="22" height="10" as="geometry"/>
                </mxCell>
                <mxCell id="H0jQTdkzcEfSwbVP08a--102" style="vsdxID=15;fillColor=none;gradientColor=none;shape=stencil(nZBLDoAgDERP0z3SIyjew0SURgSD+Lu9kMZoXLhwN9O+tukAlrNpJg1SzDH4QW/URgNYgZTkjA4UkwJUgGXng+6DX1zLfmoymdXo17xh5zmRJ6Q42BWCfc2oJfdAr+Yv+AP9Cb7OJ3H/2JG1HNGz/84klThPVCc=);strokeColor=#bcbec0;strokeWidth=2;spacingTop=-1;spacingBottom=-1;spacingLeft=-1;spacingRight=-1;points=[];labelBackgroundColor=none;rounded=0;html=1;whiteSpace=wrap;" vertex="1" parent="H0jQTdkzcEfSwbVP08a--92">
                    <mxGeometry x="33" y="9" width="22" height="10" as="geometry"/>
                </mxCell>
                <mxCell id="H0jQTdkzcEfSwbVP08a--103" style="vsdxID=16;fillColor=#808285;gradientColor=none;shape=stencil(nZBLDoAgDERP0z3SIyjew0SURgSD+Lu9kMZoXLhwN9O+tukAlrNpJg1SzDH4QW/URgNYgZTkjA4UkwJUgGXng+6DX1zLfmoymdXo17xh5zmRJ6Q42BWCfc2oJfdAr+Yv+AP9Cb7OJ3H/2JG1HNGz/84klThPVCc=);strokeColor=none;spacingTop=-1;spacingBottom=-1;spacingLeft=-1;spacingRight=-1;points=[];labelBackgroundColor=none;rounded=0;html=1;whiteSpace=wrap;" vertex="1" parent="H0jQTdkzcEfSwbVP08a--92">
                    <mxGeometry x="55" y="9" width="11" height="10" as="geometry"/>
                </mxCell>
                <mxCell id="H0jQTdkzcEfSwbVP08a--104" style="vsdxID=17;fillColor=none;gradientColor=none;shape=stencil(nZBLDoAgDERP0z3SIyjew0SURgSD+Lu9kMZoXLhwN9O+tukAlrNpJg1SzDH4QW/URgNYgZTkjA4UkwJUgGXng+6DX1zLfmoymdXo17xh5zmRJ6Q42BWCfc2oJfdAr+Yv+AP9Cb7OJ3H/2JG1HNGz/84klThPVCc=);strokeColor=#bcbec0;strokeWidth=2;spacingTop=-1;spacingBottom=-1;spacingLeft=-1;spacingRight=-1;points=[];labelBackgroundColor=none;rounded=0;html=1;whiteSpace=wrap;" vertex="1" parent="H0jQTdkzcEfSwbVP08a--92">
                    <mxGeometry x="55" y="9" width="11" height="10" as="geometry"/>
                </mxCell>
                <mxCell id="H0jQTdkzcEfSwbVP08a--105" style="vsdxID=18;fillColor=#808285;gradientColor=none;shape=stencil(nZBLDoAgDERP0z3SIyjew0SURgSD+Lu9kMZoXLhwN9O+tukAlrNpJg1SzDH4QW/URgNYgZTkjA4UkwJUgGXng+6DX1zLfmoymdXo17xh5zmRJ6Q42BWCfc2oJfdAr+Yv+AP9Cb7OJ3H/2JG1HNGz/84klThPVCc=);strokeColor=none;spacingTop=-1;spacingBottom=-1;spacingLeft=-1;spacingRight=-1;points=[];labelBackgroundColor=none;rounded=0;html=1;whiteSpace=wrap;" vertex="1" parent="H0jQTdkzcEfSwbVP08a--92">
                    <mxGeometry y="9" width="11" height="10" as="geometry"/>
                </mxCell>
                <mxCell id="H0jQTdkzcEfSwbVP08a--106" style="vsdxID=19;fillColor=none;gradientColor=none;shape=stencil(nZBLDoAgDERP0z3SIyjew0SURgSD+Lu9kMZoXLhwN9O+tukAlrNpJg1SzDH4QW/URgNYgZTkjA4UkwJUgGXng+6DX1zLfmoymdXo17xh5zmRJ6Q42BWCfc2oJfdAr+Yv+AP9Cb7OJ3H/2JG1HNGz/84klThPVCc=);strokeColor=#bcbec0;strokeWidth=2;spacingTop=-1;spacingBottom=-1;spacingLeft=-1;spacingRight=-1;points=[];labelBackgroundColor=none;rounded=0;html=1;whiteSpace=wrap;" vertex="1" parent="H0jQTdkzcEfSwbVP08a--92">
                    <mxGeometry y="9" width="11" height="10" as="geometry"/>
                </mxCell>
                <mxCell id="H0jQTdkzcEfSwbVP08a--107" style="vsdxID=20;fillColor=#808285;gradientColor=none;shape=stencil(nZBLDoAgDERP0z3SIyjew0SURgSD+Lu9kMZoXLhwN9O+tukAlrNpJg1SzDH4QW/URgNYgZTkjA4UkwJUgGXng+6DX1zLfmoymdXo17xh5zmRJ6Q42BWCfc2oJfdAr+Yv+AP9Cb7OJ3H/2JG1HNGz/84klThPVCc=);strokeColor=none;spacingTop=-1;spacingBottom=-1;spacingLeft=-1;spacingRight=-1;points=[];labelBackgroundColor=none;rounded=0;html=1;whiteSpace=wrap;" vertex="1" parent="H0jQTdkzcEfSwbVP08a--92">
                    <mxGeometry y="20" width="22" height="10" as="geometry"/>
                </mxCell>
                <mxCell id="H0jQTdkzcEfSwbVP08a--108" style="vsdxID=21;fillColor=none;gradientColor=none;shape=stencil(nZBLDoAgDERP0z3SIyjew0SURgSD+Lu9kMZoXLhwN9O+tukAlrNpJg1SzDH4QW/URgNYgZTkjA4UkwJUgGXng+6DX1zLfmoymdXo17xh5zmRJ6Q42BWCfc2oJfdAr+Yv+AP9Cb7OJ3H/2JG1HNGz/84klThPVCc=);strokeColor=#bcbec0;strokeWidth=2;spacingTop=-1;spacingBottom=-1;spacingLeft=-1;spacingRight=-1;points=[];labelBackgroundColor=none;rounded=0;html=1;whiteSpace=wrap;" vertex="1" parent="H0jQTdkzcEfSwbVP08a--92">
                    <mxGeometry y="20" width="22" height="10" as="geometry"/>
                </mxCell>
                <mxCell id="H0jQTdkzcEfSwbVP08a--109" style="vsdxID=22;fillColor=#808285;gradientColor=none;shape=stencil(nZBLDoAgDERP0z3SIyjew0SURgSD+Lu9kMZoXLhwN9O+tukAlrNpJg1SzDH4QW/URgNYgZTkjA4UkwJUgGXng+6DX1zLfmoymdXo17xh5zmRJ6Q42BWCfc2oJfdAr+Yv+AP9Cb7OJ3H/2JG1HNGz/84klThPVCc=);strokeColor=none;spacingTop=-1;spacingBottom=-1;spacingLeft=-1;spacingRight=-1;points=[];labelBackgroundColor=none;rounded=0;html=1;whiteSpace=wrap;" vertex="1" parent="H0jQTdkzcEfSwbVP08a--92">
                    <mxGeometry x="22" y="20" width="22" height="10" as="geometry"/>
                </mxCell>
                <mxCell id="H0jQTdkzcEfSwbVP08a--110" style="vsdxID=23;fillColor=none;gradientColor=none;shape=stencil(nZBLDoAgDERP0z3SIyjew0SURgSD+Lu9kMZoXLhwN9O+tukAlrNpJg1SzDH4QW/URgNYgZTkjA4UkwJUgGXng+6DX1zLfmoymdXo17xh5zmRJ6Q42BWCfc2oJfdAr+Yv+AP9Cb7OJ3H/2JG1HNGz/84klThPVCc=);strokeColor=#bcbec0;strokeWidth=2;spacingTop=-1;spacingBottom=-1;spacingLeft=-1;spacingRight=-1;points=[];labelBackgroundColor=none;rounded=0;html=1;whiteSpace=wrap;" vertex="1" parent="H0jQTdkzcEfSwbVP08a--92">
                    <mxGeometry x="22" y="20" width="22" height="10" as="geometry"/>
                </mxCell>
                <mxCell id="H0jQTdkzcEfSwbVP08a--111" style="vsdxID=24;fillColor=#4d4d4f;gradientColor=none;shape=stencil(nZBLDoAgDERP0z3SIyjew0SURgSD+Lu9kMZoXLhwN9O+tukAlrNpJg1SzDH4QW/URgNYgZTkjA4UkwJUgGXng+6DX1zLfmoymdXo17xh5zmRJ6Q42BWCfc2oJfdAr+Yv+AP9Cb7OJ3H/2JG1HNGz/84klThPVCc=);strokeColor=none;spacingTop=-1;spacingBottom=-1;spacingLeft=-1;spacingRight=-1;points=[];labelBackgroundColor=none;rounded=0;html=1;whiteSpace=wrap;" vertex="1" parent="H0jQTdkzcEfSwbVP08a--92">
                    <mxGeometry x="44" y="20" width="22" height="10" as="geometry"/>
                </mxCell>
                <mxCell id="H0jQTdkzcEfSwbVP08a--112" style="vsdxID=25;fillColor=none;gradientColor=none;shape=stencil(nZBLDoAgDERP0z3SIyjew0SURgSD+Lu9kMZoXLhwN9O+tukAlrNpJg1SzDH4QW/URgNYgZTkjA4UkwJUgGXng+6DX1zLfmoymdXo17xh5zmRJ6Q42BWCfc2oJfdAr+Yv+AP9Cb7OJ3H/2JG1HNGz/84klThPVCc=);strokeColor=#bcbec0;strokeWidth=2;spacingTop=-1;spacingBottom=-1;spacingLeft=-1;spacingRight=-1;points=[];labelBackgroundColor=none;rounded=0;html=1;whiteSpace=wrap;" vertex="1" parent="H0jQTdkzcEfSwbVP08a--92">
                    <mxGeometry x="44" y="20" width="22" height="10" as="geometry"/>
                </mxCell>
                <mxCell id="H0jQTdkzcEfSwbVP08a--113" style="vsdxID=26;fillColor=#808285;gradientColor=none;shape=stencil(nZBLDoAgDERP0z3SIyjew0SURgSD+Lu9kMZoXLhwN9O+tukAlrNpJg1SzDH4QW/URgNYgZTkjA4UkwJUgGXng+6DX1zLfmoymdXo17xh5zmRJ6Q42BWCfc2oJfdAr+Yv+AP9Cb7OJ3H/2JG1HNGz/84klThPVCc=);strokeColor=none;spacingTop=-1;spacingBottom=-1;spacingLeft=-1;spacingRight=-1;points=[];labelBackgroundColor=none;rounded=0;html=1;whiteSpace=wrap;" vertex="1" parent="H0jQTdkzcEfSwbVP08a--92">
                    <mxGeometry x="11" y="31" width="22" height="10" as="geometry"/>
                </mxCell>
                <mxCell id="H0jQTdkzcEfSwbVP08a--114" style="vsdxID=27;fillColor=none;gradientColor=none;shape=stencil(nZBLDoAgDERP0z3SIyjew0SURgSD+Lu9kMZoXLhwN9O+tukAlrNpJg1SzDH4QW/URgNYgZTkjA4UkwJUgGXng+6DX1zLfmoymdXo17xh5zmRJ6Q42BWCfc2oJfdAr+Yv+AP9Cb7OJ3H/2JG1HNGz/84klThPVCc=);strokeColor=#bcbec0;strokeWidth=2;spacingTop=-1;spacingBottom=-1;spacingLeft=-1;spacingRight=-1;points=[];labelBackgroundColor=none;rounded=0;html=1;whiteSpace=wrap;" vertex="1" parent="H0jQTdkzcEfSwbVP08a--92">
                    <mxGeometry x="11" y="31" width="22" height="10" as="geometry"/>
                </mxCell>
                <mxCell id="H0jQTdkzcEfSwbVP08a--115" style="vsdxID=28;fillColor=#808285;gradientColor=none;shape=stencil(nZBLDoAgDERP0z3SIyjew0SURgSD+Lu9kMZoXLhwN9O+tukAlrNpJg1SzDH4QW/URgNYgZTkjA4UkwJUgGXng+6DX1zLfmoymdXo17xh5zmRJ6Q42BWCfc2oJfdAr+Yv+AP9Cb7OJ3H/2JG1HNGz/84klThPVCc=);strokeColor=none;spacingTop=-1;spacingBottom=-1;spacingLeft=-1;spacingRight=-1;points=[];labelBackgroundColor=none;rounded=0;html=1;whiteSpace=wrap;" vertex="1" parent="H0jQTdkzcEfSwbVP08a--92">
                    <mxGeometry x="33" y="31" width="22" height="10" as="geometry"/>
                </mxCell>
                <mxCell id="H0jQTdkzcEfSwbVP08a--116" style="vsdxID=29;fillColor=none;gradientColor=none;shape=stencil(nZBLDoAgDERP0z3SIyjew0SURgSD+Lu9kMZoXLhwN9O+tukAlrNpJg1SzDH4QW/URgNYgZTkjA4UkwJUgGXng+6DX1zLfmoymdXo17xh5zmRJ6Q42BWCfc2oJfdAr+Yv+AP9Cb7OJ3H/2JG1HNGz/84klThPVCc=);strokeColor=#bcbec0;strokeWidth=2;spacingTop=-1;spacingBottom=-1;spacingLeft=-1;spacingRight=-1;points=[];labelBackgroundColor=none;rounded=0;html=1;whiteSpace=wrap;" vertex="1" parent="H0jQTdkzcEfSwbVP08a--92">
                    <mxGeometry x="33" y="31" width="22" height="10" as="geometry"/>
                </mxCell>
                <mxCell id="H0jQTdkzcEfSwbVP08a--117" style="vsdxID=30;fillColor=#808285;gradientColor=none;shape=stencil(nZBLDoAgDERP0z3SIyjew0SURgSD+Lu9kMZoXLhwN9O+tukAlrNpJg1SzDH4QW/URgNYgZTkjA4UkwJUgGXng+6DX1zLfmoymdXo17xh5zmRJ6Q42BWCfc2oJfdAr+Yv+AP9Cb7OJ3H/2JG1HNGz/84klThPVCc=);strokeColor=none;spacingTop=-1;spacingBottom=-1;spacingLeft=-1;spacingRight=-1;points=[];labelBackgroundColor=none;rounded=0;html=1;whiteSpace=wrap;" vertex="1" parent="H0jQTdkzcEfSwbVP08a--92">
                    <mxGeometry x="55" y="31" width="11" height="10" as="geometry"/>
                </mxCell>
                <mxCell id="H0jQTdkzcEfSwbVP08a--118" style="vsdxID=31;fillColor=none;gradientColor=none;shape=stencil(nZBLDoAgDERP0z3SIyjew0SURgSD+Lu9kMZoXLhwN9O+tukAlrNpJg1SzDH4QW/URgNYgZTkjA4UkwJUgGXng+6DX1zLfmoymdXo17xh5zmRJ6Q42BWCfc2oJfdAr+Yv+AP9Cb7OJ3H/2JG1HNGz/84klThPVCc=);strokeColor=#bcbec0;strokeWidth=2;spacingTop=-1;spacingBottom=-1;spacingLeft=-1;spacingRight=-1;points=[];labelBackgroundColor=none;rounded=0;html=1;whiteSpace=wrap;" vertex="1" parent="H0jQTdkzcEfSwbVP08a--92">
                    <mxGeometry x="55" y="31" width="11" height="10" as="geometry"/>
                </mxCell>
                <mxCell id="H0jQTdkzcEfSwbVP08a--119" style="vsdxID=32;fillColor=#808285;gradientColor=none;shape=stencil(nZBLDoAgDERP0z3SIyjew0SURgSD+Lu9kMZoXLhwN9O+tukAlrNpJg1SzDH4QW/URgNYgZTkjA4UkwJUgGXng+6DX1zLfmoymdXo17xh5zmRJ6Q42BWCfc2oJfdAr+Yv+AP9Cb7OJ3H/2JG1HNGz/84klThPVCc=);strokeColor=none;spacingTop=-1;spacingBottom=-1;spacingLeft=-1;spacingRight=-1;points=[];labelBackgroundColor=none;rounded=0;html=1;whiteSpace=wrap;" vertex="1" parent="H0jQTdkzcEfSwbVP08a--92">
                    <mxGeometry y="31" width="11" height="10" as="geometry"/>
                </mxCell>
                <mxCell id="H0jQTdkzcEfSwbVP08a--120" style="vsdxID=33;fillColor=none;gradientColor=none;shape=stencil(nZBLDoAgDERP0z3SIyjew0SURgSD+Lu9kMZoXLhwN9O+tukAlrNpJg1SzDH4QW/URgNYgZTkjA4UkwJUgGXng+6DX1zLfmoymdXo17xh5zmRJ6Q42BWCfc2oJfdAr+Yv+AP9Cb7OJ3H/2JG1HNGz/84klThPVCc=);strokeColor=#bcbec0;strokeWidth=2;spacingTop=-1;spacingBottom=-1;spacingLeft=-1;spacingRight=-1;points=[];labelBackgroundColor=none;rounded=0;html=1;whiteSpace=wrap;" vertex="1" parent="H0jQTdkzcEfSwbVP08a--92">
                    <mxGeometry y="31" width="11" height="10" as="geometry"/>
                </mxCell>
                <mxCell id="H0jQTdkzcEfSwbVP08a--121" style="vsdxID=34;fillColor=#4d4d4f;gradientColor=none;shape=stencil(nZBLDoAgDERP0z3SIyjew0SURgSD+Lu9kMZoXLhwN9O+tukAlrNpJg1SzDH4QW/URgNYgZTkjA4UkwJUgGXng+6DX1zLfmoymdXo17xh5zmRJ6Q42BWCfc2oJfdAr+Yv+AP9Cb7OJ3H/2JG1HNGz/84klThPVCc=);strokeColor=none;spacingTop=-1;spacingBottom=-1;spacingLeft=-1;spacingRight=-1;points=[];labelBackgroundColor=none;rounded=0;html=1;whiteSpace=wrap;" vertex="1" parent="H0jQTdkzcEfSwbVP08a--92">
                    <mxGeometry y="41" width="22" height="10" as="geometry"/>
                </mxCell>
                <mxCell id="H0jQTdkzcEfSwbVP08a--122" style="vsdxID=35;fillColor=none;gradientColor=none;shape=stencil(nZBLDoAgDERP0z3SIyjew0SURgSD+Lu9kMZoXLhwN9O+tukAlrNpJg1SzDH4QW/URgNYgZTkjA4UkwJUgGXng+6DX1zLfmoymdXo17xh5zmRJ6Q42BWCfc2oJfdAr+Yv+AP9Cb7OJ3H/2JG1HNGz/84klThPVCc=);strokeColor=#bcbec0;strokeWidth=2;spacingTop=-1;spacingBottom=-1;spacingLeft=-1;spacingRight=-1;points=[];labelBackgroundColor=none;rounded=0;html=1;whiteSpace=wrap;" vertex="1" parent="H0jQTdkzcEfSwbVP08a--92">
                    <mxGeometry y="41" width="22" height="10" as="geometry"/>
                </mxCell>
                <mxCell id="H0jQTdkzcEfSwbVP08a--123" style="vsdxID=36;fillColor=#808285;gradientColor=none;shape=stencil(nZBLDoAgDERP0z3SIyjew0SURgSD+Lu9kMZoXLhwN9O+tukAlrNpJg1SzDH4QW/URgNYgZTkjA4UkwJUgGXng+6DX1zLfmoymdXo17xh5zmRJ6Q42BWCfc2oJfdAr+Yv+AP9Cb7OJ3H/2JG1HNGz/84klThPVCc=);strokeColor=none;spacingTop=-1;spacingBottom=-1;spacingLeft=-1;spacingRight=-1;points=[];labelBackgroundColor=none;rounded=0;html=1;whiteSpace=wrap;" vertex="1" parent="H0jQTdkzcEfSwbVP08a--92">
                    <mxGeometry x="22" y="41" width="22" height="10" as="geometry"/>
                </mxCell>
                <mxCell id="H0jQTdkzcEfSwbVP08a--124" style="vsdxID=37;fillColor=none;gradientColor=none;shape=stencil(nZBLDoAgDERP0z3SIyjew0SURgSD+Lu9kMZoXLhwN9O+tukAlrNpJg1SzDH4QW/URgNYgZTkjA4UkwJUgGXng+6DX1zLfmoymdXo17xh5zmRJ6Q42BWCfc2oJfdAr+Yv+AP9Cb7OJ3H/2JG1HNGz/84klThPVCc=);strokeColor=#bcbec0;strokeWidth=2;spacingTop=-1;spacingBottom=-1;spacingLeft=-1;spacingRight=-1;points=[];labelBackgroundColor=none;rounded=0;html=1;whiteSpace=wrap;" vertex="1" parent="H0jQTdkzcEfSwbVP08a--92">
                    <mxGeometry x="22" y="41" width="22" height="10" as="geometry"/>
                </mxCell>
                <mxCell id="H0jQTdkzcEfSwbVP08a--125" style="vsdxID=38;fillColor=#808285;gradientColor=none;shape=stencil(nZBLDoAgDERP0z3SIyjew0SURgSD+Lu9kMZoXLhwN9O+tukAlrNpJg1SzDH4QW/URgNYgZTkjA4UkwJUgGXng+6DX1zLfmoymdXo17xh5zmRJ6Q42BWCfc2oJfdAr+Yv+AP9Cb7OJ3H/2JG1HNGz/84klThPVCc=);strokeColor=none;spacingTop=-1;spacingBottom=-1;spacingLeft=-1;spacingRight=-1;points=[];labelBackgroundColor=none;rounded=0;html=1;whiteSpace=wrap;" vertex="1" parent="H0jQTdkzcEfSwbVP08a--92">
                    <mxGeometry x="44" y="41" width="22" height="10" as="geometry"/>
                </mxCell>
                <mxCell id="H0jQTdkzcEfSwbVP08a--126" style="vsdxID=39;fillColor=none;gradientColor=none;shape=stencil(nZBLDoAgDERP0z3SIyjew0SURgSD+Lu9kMZoXLhwN9O+tukAlrNpJg1SzDH4QW/URgNYgZTkjA4UkwJUgGXng+6DX1zLfmoymdXo17xh5zmRJ6Q42BWCfc2oJfdAr+Yv+AP9Cb7OJ3H/2JG1HNGz/84klThPVCc=);strokeColor=#bcbec0;strokeWidth=2;spacingTop=-1;spacingBottom=-1;spacingLeft=-1;spacingRight=-1;points=[];labelBackgroundColor=none;rounded=0;html=1;whiteSpace=wrap;" vertex="1" parent="H0jQTdkzcEfSwbVP08a--92">
                    <mxGeometry x="44" y="41" width="22" height="10" as="geometry"/>
                </mxCell>
                <mxCell id="H0jQTdkzcEfSwbVP08a--127" value="&lt;div style=&quot;font-size: 1px&quot;&gt;&lt;/div&gt;" style="text;vsdxID=5;fillColor=none;gradientColor=none;strokeColor=none;spacingTop=-1;spacingBottom=-1;spacingLeft=-1;spacingRight=-1;points=[[0.5,1,0],[1,0.5,0],[0.5,0,0],[0,0.5,0],[0.5,0.49,0]];labelBackgroundColor=none;rounded=0;html=1;whiteSpace=wrap;verticalAlign=top;align=center;overflow=width;;html=1;" vertex="1" parent="H0jQTdkzcEfSwbVP08a--92">
                    <mxGeometry x="-6.35" y="54.38" width="74.61" height="38.89" as="geometry"/>
                </mxCell>
                <mxCell id="105" value="ge-7/0/3" style="text;html=1;strokeColor=none;fillColor=none;align=center;verticalAlign=middle;whiteSpace=wrap;rounded=0;rotation=75;" vertex="1" parent="H0jQTdkzcEfSwbVP08a--92">
                    <mxGeometry x="50" y="73.26999999999998" width="60" height="20" as="geometry"/>
                </mxCell>
                <mxCell id="141" value="vSRX-Cluster-node1" style="text;html=1;strokeColor=default;fillColor=none;align=center;verticalAlign=middle;whiteSpace=wrap;rounded=0;" vertex="1" parent="H0jQTdkzcEfSwbVP08a--92">
                    <mxGeometry x="68.25999999999999" width="60" height="50" as="geometry"/>
                </mxCell>
                <mxCell id="KxTmls-7jIh_fME9fBzn-4" style="vsdxID=5;fillColor=none;gradientColor=none;strokeColor=none;points=[[0.5,0,0],[0.5,1,0],[0,0.5,0],[1,0.5,0],[0.5,0.5,0]];labelBackgroundColor=none;rounded=0;html=1;whiteSpace=wrap;" vertex="1" parent="1">
                    <mxGeometry x="160" y="20" width="59" height="59" as="geometry"/>
                </mxCell>
                <mxCell id="KxTmls-7jIh_fME9fBzn-5" style="vsdxID=6;fillColor=#4d4d4f;gradientColor=none;shape=stencil(nZBLDoAgDERP0z3SIyjew0SURgSD+Lu9kMZoXLhwN9O+tukAlrNpJg1SzDH4QW/URgNYgZTkjA4UkwJUgGXng+6DX1zLfmoymdXo17xh5zmRJ6Q42BWCfc2oJfdAr+Yv+AP9Cb7OJ3H/2JG1HNGz/84klThPVCc=);strokeColor=none;spacingTop=-3;spacingBottom=-3;spacingLeft=-3;spacingRight=-3;points=[];labelBackgroundColor=none;rounded=0;html=1;whiteSpace=wrap;" vertex="1" parent="KxTmls-7jIh_fME9fBzn-4">
                    <mxGeometry width="59" height="59" as="geometry"/>
                </mxCell>
                <mxCell id="KxTmls-7jIh_fME9fBzn-6" style="vsdxID=7;fillColor=none;gradientColor=none;shape=stencil(nZBLDoAgDERP0z3SIyjew0SURgSD+Lu9kMZoXLhwN9O+tukAlrNpJg1SzDH4QW/URgNYgZTkjA4UkwJUgGXng+6DX1zLfmoymdXo17xh5zmRJ6Q42BWCfc2oJfdAr+Yv+AP9Cb7OJ3H/2JG1HNGz/84klThPVCc=);strokeColor=#bcbec0;strokeWidth=2;spacingTop=-3;spacingBottom=-3;spacingLeft=-3;spacingRight=-3;points=[];labelBackgroundColor=none;rounded=0;html=1;whiteSpace=wrap;" vertex="1" parent="KxTmls-7jIh_fME9fBzn-4">
                    <mxGeometry width="59" height="59" as="geometry"/>
                </mxCell>
                <mxCell id="KxTmls-7jIh_fME9fBzn-7" style="vsdxID=8;fillColor=#636567;gradientColor=none;shape=stencil(jZPbbsIwDIafJreVD3EOlxNj74FGWasxikLZ4O3XNAWaiGrLlR3/dj7ZjuLVqdkca0Vw6kP3Wf+0275R/KqI2kNTh7YfLMVrxatdF+qP0J0P2+QfN1EZra/uO1a4pDyBmEJwTS5C8t+S9v0ckhhT2NpK2DpB1J7QTKl4z61gdjCFL5SXhivNimnRRmsvjic1l2rOQEcweHnC9siYLogqbcB58oYBNYDOgcb3RSx48XIL3uAgx5GC5i+Y+LZ4Z5wxCJZzMMg5irYsYnMu/29f4lCIHKDzFtEakpzm+RjmMITaOQHrih4tDXyhZ9lujaiD/djLXbvfp7W+r99glHs8XKU/wOtf);strokeColor=none;spacingTop=-3;spacingBottom=-3;spacingLeft=-3;spacingRight=-3;points=[];labelBackgroundColor=none;rounded=0;html=1;whiteSpace=wrap;" vertex="1" parent="KxTmls-7jIh_fME9fBzn-4">
                    <mxGeometry x="6" y="6" width="46" height="46" as="geometry"/>
                </mxCell>
                <mxCell id="KxTmls-7jIh_fME9fBzn-8" style="vsdxID=9;fillColor=none;gradientColor=none;shape=stencil(jZPbbsIwDIafJreVD3EOlxNj74FGWasxikLZ4O3XNAWaiGrLlR3/dj7ZjuLVqdkca0Vw6kP3Wf+0275R/KqI2kNTh7YfLMVrxatdF+qP0J0P2+QfN1EZra/uO1a4pDyBmEJwTS5C8t+S9v0ckhhT2NpK2DpB1J7QTKl4z61gdjCFL5SXhivNimnRRmsvjic1l2rOQEcweHnC9siYLogqbcB58oYBNYDOgcb3RSx48XIL3uAgx5GC5i+Y+LZ4Z5wxCJZzMMg5irYsYnMu/29f4lCIHKDzFtEakpzm+RjmMITaOQHrih4tDXyhZ9lujaiD/djLXbvfp7W+r99glHs8XKU/wOtf);strokeColor=#bcbec0;strokeWidth=2;spacingTop=-3;spacingBottom=-3;spacingLeft=-3;spacingRight=-3;points=[];labelBackgroundColor=none;rounded=0;html=1;whiteSpace=wrap;" vertex="1" parent="KxTmls-7jIh_fME9fBzn-4">
                    <mxGeometry x="6" y="6" width="46" height="46" as="geometry"/>
                </mxCell>
                <mxCell id="KxTmls-7jIh_fME9fBzn-9" style="vsdxID=10;fillColor=#e7e7e7;gradientColor=none;shape=stencil(rZhLctswDIZPoy2GJMDXOk3vkZk4taaunXHcNrl9oapuQlIGhVF2soSPJAj8AOkB7172D8+7wZmXy/n0ffd7fLzsB/wyODce97vzeOGnAe8HvHs6nXffzqefx8f59/PDZDk9/Tj9mkZ4nTlCSH6inHn798ZDzn/ffJ2Bw3j8CBigoAEsxLTJHgOEeNsePSS7DbDh+mYZMJCcCvAQSh8SkGCegbAcH7IwPIfAl/ZGMPaAef1avAFHGl8pgUEV4MFuBMgCogro5LRaBH2glFlCsJUKMhjB6QVAXpJP189rAQJ0GwGCKPiwAMiBawEHWbAPCIE22XdKRRsFPWAh3bbPFoJm/Mxqq9KC67EQgxyBqI6Bd584gzVGNX7tMQVA1Y56C06Y4DOkVgOlmDHWW8SbJvaDFojXEr4MJMCgAtQzqH1ouqYaCB6MFxIpbAaiARuESAPV4wtbVKZ1YBUIa6mH9h68dMhpls6NNwp9eQHgWqfaHF6SNEN7sOsBTZvVA1FUZgtwFFDqyw0wJalWBZtUU5aKqSs3uiRhj9jBeoYgrUg9wQqgcoHAlk2ZS7iU21w9XSyA9wq7vCQLpAOac4IamOSsse+kNn9WaaeNQgfgIAXVDC3Qqabt4UgNdKIQUnMt6gB8zK7kLKfegnr+H2dWxuF6nLmVFzotrAD44f1y/jQeDvPd/uP3+jLPr+Y/AvD+Dw==);strokeColor=none;spacingTop=-3;spacingBottom=-3;spacingLeft=-3;spacingRight=-3;points=[];labelBackgroundColor=none;rounded=0;html=1;whiteSpace=wrap;" vertex="1" parent="KxTmls-7jIh_fME9fBzn-4">
                    <mxGeometry x="11" y="11" width="37" height="37" as="geometry"/>
                </mxCell>
                <mxCell id="KxTmls-7jIh_fME9fBzn-10" style="vsdxID=5;fillColor=none;gradientColor=none;strokeColor=none;points=[[0.5,0,0],[0.5,1,0],[0,0.5,0],[1,0.5,0],[0.5,0.5,0]];labelBackgroundColor=none;rounded=0;html=1;whiteSpace=wrap;" vertex="1" parent="1">
                    <mxGeometry x="640" y="20" width="59" height="59" as="geometry"/>
                </mxCell>
                <mxCell id="KxTmls-7jIh_fME9fBzn-11" style="vsdxID=6;fillColor=#4d4d4f;gradientColor=none;shape=stencil(nZBLDoAgDERP0z3SIyjew0SURgSD+Lu9kMZoXLhwN9O+tukAlrNpJg1SzDH4QW/URgNYgZTkjA4UkwJUgGXng+6DX1zLfmoymdXo17xh5zmRJ6Q42BWCfc2oJfdAr+Yv+AP9Cb7OJ3H/2JG1HNGz/84klThPVCc=);strokeColor=none;spacingTop=-3;spacingBottom=-3;spacingLeft=-3;spacingRight=-3;points=[];labelBackgroundColor=none;rounded=0;html=1;whiteSpace=wrap;" vertex="1" parent="KxTmls-7jIh_fME9fBzn-10">
                    <mxGeometry width="59" height="59" as="geometry"/>
                </mxCell>
                <mxCell id="KxTmls-7jIh_fME9fBzn-12" style="vsdxID=7;fillColor=none;gradientColor=none;shape=stencil(nZBLDoAgDERP0z3SIyjew0SURgSD+Lu9kMZoXLhwN9O+tukAlrNpJg1SzDH4QW/URgNYgZTkjA4UkwJUgGXng+6DX1zLfmoymdXo17xh5zmRJ6Q42BWCfc2oJfdAr+Yv+AP9Cb7OJ3H/2JG1HNGz/84klThPVCc=);strokeColor=#bcbec0;strokeWidth=2;spacingTop=-3;spacingBottom=-3;spacingLeft=-3;spacingRight=-3;points=[];labelBackgroundColor=none;rounded=0;html=1;whiteSpace=wrap;" vertex="1" parent="KxTmls-7jIh_fME9fBzn-10">
                    <mxGeometry width="59" height="59" as="geometry"/>
                </mxCell>
                <mxCell id="KxTmls-7jIh_fME9fBzn-13" style="vsdxID=8;fillColor=#636567;gradientColor=none;shape=stencil(jZPbbsIwDIafJreVD3EOlxNj74FGWasxikLZ4O3XNAWaiGrLlR3/dj7ZjuLVqdkca0Vw6kP3Wf+0275R/KqI2kNTh7YfLMVrxatdF+qP0J0P2+QfN1EZra/uO1a4pDyBmEJwTS5C8t+S9v0ckhhT2NpK2DpB1J7QTKl4z61gdjCFL5SXhivNimnRRmsvjic1l2rOQEcweHnC9siYLogqbcB58oYBNYDOgcb3RSx48XIL3uAgx5GC5i+Y+LZ4Z5wxCJZzMMg5irYsYnMu/29f4lCIHKDzFtEakpzm+RjmMITaOQHrih4tDXyhZ9lujaiD/djLXbvfp7W+r99glHs8XKU/wOtf);strokeColor=none;spacingTop=-3;spacingBottom=-3;spacingLeft=-3;spacingRight=-3;points=[];labelBackgroundColor=none;rounded=0;html=1;whiteSpace=wrap;" vertex="1" parent="KxTmls-7jIh_fME9fBzn-10">
                    <mxGeometry x="6" y="6" width="46" height="46" as="geometry"/>
                </mxCell>
                <mxCell id="KxTmls-7jIh_fME9fBzn-14" style="vsdxID=9;fillColor=none;gradientColor=none;shape=stencil(jZPbbsIwDIafJreVD3EOlxNj74FGWasxikLZ4O3XNAWaiGrLlR3/dj7ZjuLVqdkca0Vw6kP3Wf+0275R/KqI2kNTh7YfLMVrxatdF+qP0J0P2+QfN1EZra/uO1a4pDyBmEJwTS5C8t+S9v0ckhhT2NpK2DpB1J7QTKl4z61gdjCFL5SXhivNimnRRmsvjic1l2rOQEcweHnC9siYLogqbcB58oYBNYDOgcb3RSx48XIL3uAgx5GC5i+Y+LZ4Z5wxCJZzMMg5irYsYnMu/29f4lCIHKDzFtEakpzm+RjmMITaOQHrih4tDXyhZ9lujaiD/djLXbvfp7W+r99glHs8XKU/wOtf);strokeColor=#bcbec0;strokeWidth=2;spacingTop=-3;spacingBottom=-3;spacingLeft=-3;spacingRight=-3;points=[];labelBackgroundColor=none;rounded=0;html=1;whiteSpace=wrap;" vertex="1" parent="KxTmls-7jIh_fME9fBzn-10">
                    <mxGeometry x="6" y="6" width="46" height="46" as="geometry"/>
                </mxCell>
                <mxCell id="KxTmls-7jIh_fME9fBzn-15" style="vsdxID=10;fillColor=#e7e7e7;gradientColor=none;shape=stencil(rZhLctswDIZPoy2GJMDXOk3vkZk4taaunXHcNrl9oapuQlIGhVF2soSPJAj8AOkB7172D8+7wZmXy/n0ffd7fLzsB/wyODce97vzeOGnAe8HvHs6nXffzqefx8f59/PDZDk9/Tj9mkZ4nTlCSH6inHn798ZDzn/ffJ2Bw3j8CBigoAEsxLTJHgOEeNsePSS7DbDh+mYZMJCcCvAQSh8SkGCegbAcH7IwPIfAl/ZGMPaAef1avAFHGl8pgUEV4MFuBMgCogro5LRaBH2glFlCsJUKMhjB6QVAXpJP189rAQJ0GwGCKPiwAMiBawEHWbAPCIE22XdKRRsFPWAh3bbPFoJm/Mxqq9KC67EQgxyBqI6Bd584gzVGNX7tMQVA1Y56C06Y4DOkVgOlmDHWW8SbJvaDFojXEr4MJMCgAtQzqH1ouqYaCB6MFxIpbAaiARuESAPV4wtbVKZ1YBUIa6mH9h68dMhpls6NNwp9eQHgWqfaHF6SNEN7sOsBTZvVA1FUZgtwFFDqyw0wJalWBZtUU5aKqSs3uiRhj9jBeoYgrUg9wQqgcoHAlk2ZS7iU21w9XSyA9wq7vCQLpAOac4IamOSsse+kNn9WaaeNQgfgIAXVDC3Qqabt4UgNdKIQUnMt6gB8zK7kLKfegnr+H2dWxuF6nLmVFzotrAD44f1y/jQeDvPd/uP3+jLPr+Y/AvD+Dw==);strokeColor=none;spacingTop=-3;spacingBottom=-3;spacingLeft=-3;spacingRight=-3;points=[];labelBackgroundColor=none;rounded=0;html=1;whiteSpace=wrap;" vertex="1" parent="KxTmls-7jIh_fME9fBzn-10">
                    <mxGeometry x="11" y="11" width="37" height="37" as="geometry"/>
                </mxCell>
                <mxCell id="7" style="edgeStyle=none;html=1;startArrow=baseDash;startFill=0;endArrow=baseDash;endFill=0;strokeWidth=2;entryX=0.006;entryY=0.305;entryDx=0;entryDy=0;entryPerimeter=0;" edge="1" parent="1" target="KxTmls-7jIh_fME9fBzn-12">
                    <mxGeometry relative="1" as="geometry">
                        <mxPoint x="220" y="40" as="sourcePoint"/>
                        <mxPoint x="600" y="59" as="targetPoint"/>
                    </mxGeometry>
                </mxCell>
                <mxCell id="8" style="edgeStyle=none;html=1;entryX=0;entryY=0.678;entryDx=0;entryDy=0;entryPerimeter=0;startArrow=baseDash;startFill=0;endArrow=baseDash;endFill=0;exitX=1;exitY=0.689;exitDx=0;exitDy=0;exitPerimeter=0;strokeWidth=2;" edge="1" parent="1" source="KxTmls-7jIh_fME9fBzn-6" target="KxTmls-7jIh_fME9fBzn-12">
                    <mxGeometry relative="1" as="geometry"/>
                </mxCell>
                <mxCell id="13" style="edgeStyle=none;html=1;entryX=0.045;entryY=0.467;entryDx=0;entryDy=0;entryPerimeter=0;startArrow=baseDash;startFill=0;endArrow=baseDash;endFill=0;strokeWidth=2;" edge="1" parent="1" source="H0jQTdkzcEfSwbVP08a--62" target="H0jQTdkzcEfSwbVP08a--94">
                    <mxGeometry relative="1" as="geometry"/>
                </mxCell>
                <mxCell id="14" style="edgeStyle=none;html=1;entryX=0.045;entryY=0.533;entryDx=0;entryDy=0;entryPerimeter=0;startArrow=baseDash;startFill=0;endArrow=baseDash;endFill=0;strokeWidth=2;" edge="1" parent="1" source="H0jQTdkzcEfSwbVP08a--76" target="H0jQTdkzcEfSwbVP08a--108">
                    <mxGeometry relative="1" as="geometry"/>
                </mxCell>
                <mxCell id="15" style="edgeStyle=none;html=1;entryX=-0.015;entryY=0.633;entryDx=0;entryDy=0;entryPerimeter=0;startArrow=baseDash;startFill=0;endArrow=baseDash;endFill=0;strokeWidth=2;" edge="1" parent="1" source="H0jQTdkzcEfSwbVP08a--90" target="H0jQTdkzcEfSwbVP08a--122">
                    <mxGeometry relative="1" as="geometry"/>
                </mxCell>
                <mxCell id="16" value="CTL" style="text;html=1;strokeColor=none;fillColor=none;align=center;verticalAlign=middle;whiteSpace=wrap;rounded=0;" vertex="1" parent="1">
                    <mxGeometry x="400" y="260" width="60" height="30" as="geometry"/>
                </mxCell>
                <mxCell id="17" value="ge-0/0/0" style="text;html=1;strokeColor=none;fillColor=none;align=center;verticalAlign=middle;whiteSpace=wrap;rounded=0;" vertex="1" parent="1">
                    <mxGeometry x="346" y="282" width="60" height="30" as="geometry"/>
                </mxCell>
                <mxCell id="18" value="ge-0/0/1" style="text;html=1;strokeColor=none;fillColor=none;align=center;verticalAlign=middle;whiteSpace=wrap;rounded=0;" vertex="1" parent="1">
                    <mxGeometry x="346" y="302" width="60" height="30" as="geometry"/>
                </mxCell>
                <mxCell id="19" value="ge-7/0/0" style="text;html=1;strokeColor=none;fillColor=none;align=center;verticalAlign=middle;whiteSpace=wrap;rounded=0;" vertex="1" parent="1">
                    <mxGeometry x="460" y="282" width="60" height="30" as="geometry"/>
                </mxCell>
                <mxCell id="20" value="ge-7/0/1" style="text;html=1;strokeColor=none;fillColor=none;align=center;verticalAlign=middle;whiteSpace=wrap;rounded=0;" vertex="1" parent="1">
                    <mxGeometry x="460" y="302" width="60" height="30" as="geometry"/>
                </mxCell>
                <mxCell id="22" value="ge-0/0/1" style="text;html=1;strokeColor=none;fillColor=none;align=center;verticalAlign=middle;whiteSpace=wrap;rounded=0;" vertex="1" parent="1">
                    <mxGeometry x="240" y="20" width="60" height="20" as="geometry"/>
                </mxCell>
                <mxCell id="23" value="ge-0/0/2" style="text;html=1;strokeColor=none;fillColor=none;align=center;verticalAlign=middle;whiteSpace=wrap;rounded=0;" vertex="1" parent="1">
                    <mxGeometry x="240" y="44.5" width="60" height="10" as="geometry"/>
                </mxCell>
                <mxCell id="24" value="ge-0/0/6" style="text;html=1;strokeColor=none;fillColor=none;align=center;verticalAlign=middle;whiteSpace=wrap;rounded=0;rotation=-60;" vertex="1" parent="1">
                    <mxGeometry x="640" y="107.21" width="60" height="20" as="geometry"/>
                </mxCell>
                <mxCell id="25" value="AE0" style="ellipse;whiteSpace=wrap;html=1;" vertex="1" parent="1">
                    <mxGeometry x="414" y="20" width="40" height="62.79" as="geometry"/>
                </mxCell>
                <mxCell id="30" value="AE1" style="ellipse;whiteSpace=wrap;html=1;rotation=-15;" vertex="1" parent="1">
                    <mxGeometry x="210" y="119" width="80" height="38" as="geometry"/>
                </mxCell>
                <mxCell id="31" value="AE1" style="ellipse;whiteSpace=wrap;html=1;rotation=15;" vertex="1" parent="1">
                    <mxGeometry x="556" y="119" width="90" height="38" as="geometry"/>
                </mxCell>
                <mxCell id="34" value="ge-0/0/6" style="text;html=1;strokeColor=none;fillColor=none;align=center;verticalAlign=middle;whiteSpace=wrap;rounded=0;rotation=30;" vertex="1" parent="1">
                    <mxGeometry x="219" y="79" width="60" height="20" as="geometry"/>
                </mxCell>
                <mxCell id="35" value="ge-0/0/5" style="text;html=1;strokeColor=none;fillColor=none;align=center;verticalAlign=middle;whiteSpace=wrap;rounded=0;rotation=60;" vertex="1" parent="1">
                    <mxGeometry x="159" y="99" width="60" height="20" as="geometry"/>
                </mxCell>
                <mxCell id="36" value="ge-0/0/1" style="text;html=1;strokeColor=none;fillColor=none;align=center;verticalAlign=middle;whiteSpace=wrap;rounded=0;" vertex="1" parent="1">
                    <mxGeometry x="580" y="20" width="60" height="20" as="geometry"/>
                </mxCell>
                <mxCell id="40" value="ge-0/0/2" style="text;html=1;strokeColor=none;fillColor=none;align=center;verticalAlign=middle;whiteSpace=wrap;rounded=0;" vertex="1" parent="1">
                    <mxGeometry x="580" y="44.5" width="60" height="10" as="geometry"/>
                </mxCell>
                <mxCell id="41" value="ge-0/0/5" style="text;html=1;strokeColor=none;fillColor=none;align=center;verticalAlign=middle;whiteSpace=wrap;rounded=0;rotation=-30;" vertex="1" parent="1">
                    <mxGeometry x="586" y="79" width="60" height="20" as="geometry"/>
                </mxCell>
                <mxCell id="42" value="ge-0/0/6" style="text;html=1;strokeColor=none;fillColor=none;align=center;verticalAlign=middle;whiteSpace=wrap;rounded=0;rotation=60;" vertex="1" parent="1">
                    <mxGeometry x="230" y="240" width="60" height="20" as="geometry"/>
                </mxCell>
                <mxCell id="43" value="ge-7/0/6" style="text;html=1;strokeColor=none;fillColor=none;align=center;verticalAlign=middle;whiteSpace=wrap;rounded=0;rotation=30;" vertex="1" parent="1">
                    <mxGeometry x="496" y="240" width="60" height="20" as="geometry"/>
                </mxCell>
                <mxCell id="44" value="ge-7/0/7" style="text;html=1;strokeColor=none;fillColor=none;align=center;verticalAlign=middle;whiteSpace=wrap;rounded=0;rotation=-65;" vertex="1" parent="1">
                    <mxGeometry x="574" y="240" width="60" height="20" as="geometry"/>
                </mxCell>
                <mxCell id="45" value="ge-0/0/7" style="text;html=1;strokeColor=none;fillColor=none;align=center;verticalAlign=middle;whiteSpace=wrap;rounded=0;rotation=-30;" vertex="1" parent="1">
                    <mxGeometry x="307.5" y="240" width="60" height="20" as="geometry"/>
                </mxCell>
                <mxCell id="46" style="vsdxID=5;fillColor=none;gradientColor=none;strokeColor=none;points=[[0.5,0,0],[0.5,1,0],[1,0.5,0],[0,0.5,0],[0.5,0.47,0]];labelBackgroundColor=none;rounded=0;html=1;whiteSpace=wrap;" vertex="1" parent="1">
                    <mxGeometry x="280" y="860" width="59" height="59" as="geometry"/>
                </mxCell>
                <mxCell id="47" style="vsdxID=6;fillColor=#12537c;gradientColor=none;shape=stencil(nZBLDoAgDERP0z3SIyjew0SURgSD+Lu9kMZoXLhwN9O+tukAlrNpJg1SzDH4QW/URgNYgZTkjA4UkwJUgGXng+6DX1zLfmoymdXo17xh5zmRJ6Q42BWCfc2oJfdAr+Yv+AP9Cb7OJ3H/2JG1HNGz/84klThPVCc=);strokeColor=none;spacingTop=-3;spacingBottom=-3;spacingLeft=-3;spacingRight=-3;points=[];labelBackgroundColor=none;rounded=0;html=1;whiteSpace=wrap;" vertex="1" parent="46">
                    <mxGeometry width="59" height="59" as="geometry"/>
                </mxCell>
                <mxCell id="48" style="vsdxID=7;fillColor=none;gradientColor=none;shape=stencil(nZBLDoAgDERP0z3SIyjew0SURgSD+Lu9kMZoXLhwN9O+tukAlrNpJg1SzDH4QW/URgNYgZTkjA4UkwJUgGXng+6DX1zLfmoymdXo17xh5zmRJ6Q42BWCfc2oJfdAr+Yv+AP9Cb7OJ3H/2JG1HNGz/84klThPVCc=);strokeColor=#bcbec0;strokeWidth=2;spacingTop=-3;spacingBottom=-3;spacingLeft=-3;spacingRight=-3;points=[];labelBackgroundColor=none;rounded=0;html=1;whiteSpace=wrap;" vertex="1" parent="46">
                    <mxGeometry width="59" height="59" as="geometry"/>
                </mxCell>
                <mxCell id="49" style="vsdxID=8;fillColor=#FFFFFF;gradientColor=none;shape=stencil(nZLLDoMgEEW/hi0ZGPGxtvY/TMRKSsWg9vH3ldKmWkOi3Q2Xe4YBLsG8b8pOEg79YM1Z3lQ1NAQPhHPVNtKqYaoIFgTz2lh5smZsK7/uSud01cVcXYe75+KEsshRHB5vJaZZ8lKOHtCqnQHwvxkZhThsXo+yARALAMLmFKlIF2Ye0SwLAwyW0wugwPb0T8Seu36O22hfPfxUfP+4Vlr7iMz3fzMxST5PWDwB);strokeColor=none;spacingTop=-3;spacingBottom=-3;spacingLeft=-3;spacingRight=-3;points=[];labelBackgroundColor=none;rounded=0;html=1;whiteSpace=wrap;" vertex="1" parent="46">
                    <mxGeometry x="27" y="9" width="26" height="10" as="geometry"/>
                </mxCell>
                <mxCell id="50" style="vsdxID=9;fillColor=#FFFFFF;gradientColor=none;shape=stencil(nZLdEoIgEIWfhltmYUPt2uw9nBGDycRB7Oftg6hJc2ysu8PyncMCSzDvVdlJwqF31hzlRVdOEdwRznWrpNXOK4IFwbw2Vh6sGdoqrrsykEGdzDkkXKMvSSnbBBeH27OS0G36qOyjodHtyAD/w8goJMvwvJUVBjExwDKcIRXZBOZimWYwbV0ABfZLePolfH7R13Er8dmre/H+4Fo3TZyP8f7nQPhSHCYs7g==);strokeColor=none;spacingTop=-3;spacingBottom=-3;spacingLeft=-3;spacingRight=-3;points=[];labelBackgroundColor=none;rounded=0;html=1;whiteSpace=wrap;" vertex="1" parent="46">
                    <mxGeometry x="27" y="27" width="26" height="10" as="geometry"/>
                </mxCell>
                <mxCell id="51" style="vsdxID=10;fillColor=#FFFFFF;gradientColor=none;shape=stencil(pZLdDoIwDIWfZrdLaQHZNeJ7kDDcIjIy8O/tZU4jiBCJd2fd+dqTtIzSVuWNZAhtZ81BXnTRKUZbhqhrJa3uesUoY5SWxsq9Nae68O8md06njubsOlw9R8iT2FEIt2eFONCjsvNApesBEAD8Y48TLsJ5+zTOauA18XucmIc4sm9CLsQ8ME4fAYdgTXeMFoFp+oXsP6yqF+9Fl7qq/J0M/z8Poy/5o6LsDg==);strokeColor=none;spacingTop=-3;spacingBottom=-3;spacingLeft=-3;spacingRight=-3;points=[];labelBackgroundColor=none;rounded=0;html=1;whiteSpace=wrap;" vertex="1" parent="46">
                    <mxGeometry x="6" y="36" width="26" height="10" as="geometry"/>
                </mxCell>
                <mxCell id="52" style="vsdxID=11;fillColor=#FFFFFF;gradientColor=none;shape=stencil(pVLLDoIwEPyaXpu6i5WeEf+DhCKNlZICPv7e1moE0UbibTqd2Z1kh2DW1UUrCbCut+Ygz6rsa4JbAqCaWlrVO0QwJ5hVxsq9NUNThndbeKVHR3PyEy7Bh0BT7l3Arg8GKcM7swsGrZqRYcXYP3KeUhGRz+MsNjw3fo7DaQIT+SahQnw3TNMnIiqeT4f1kuiR4D/cyYHXlSuldSjJ+P+9FY4KjcL8Bg==);strokeColor=none;spacingTop=-3;spacingBottom=-3;spacingLeft=-3;spacingRight=-3;points=[];labelBackgroundColor=none;rounded=0;html=1;whiteSpace=wrap;" vertex="1" parent="46">
                    <mxGeometry x="6" y="18" width="26" height="10" as="geometry"/>
                </mxCell>
                <mxCell id="59" style="edgeStyle=none;jumpStyle=arc;jumpSize=12;html=1;entryX=0.322;entryY=0;entryDx=0;entryDy=0;entryPerimeter=0;strokeWidth=2;startArrow=oval;startFill=1;endArrow=oval;endFill=1;" edge="1" parent="1" source="H0jQTdkzcEfSwbVP08a--86" target="55">
                    <mxGeometry relative="1" as="geometry"/>
                </mxCell>
                <mxCell id="53" style="vsdxID=5;fillColor=none;gradientColor=none;strokeColor=none;points=[[0.5,0,0],[0,0.5,0],[1,0.5,0],[0.5,1,0],[0.5,0.5,0]];labelBackgroundColor=none;rounded=0;html=1;whiteSpace=wrap;" vertex="1" parent="1">
                    <mxGeometry x="221" y="580" width="59" height="59" as="geometry"/>
                </mxCell>
                <mxCell id="54" style="vsdxID=6;fillColor=#12537c;gradientColor=none;shape=stencil(nZBLDoAgDERP0z3SIyjew0SURgSD+Lu9kMZoXLhwN9O+tukAlrNpJg1SzDH4QW/URgNYgZTkjA4UkwJUgGXng+6DX1zLfmoymdXo17xh5zmRJ6Q42BWCfc2oJfdAr+Yv+AP9Cb7OJ3H/2JG1HNGz/84klThPVCc=);strokeColor=none;spacingTop=-3;spacingBottom=-3;spacingLeft=-3;spacingRight=-3;points=[];labelBackgroundColor=none;rounded=0;html=1;whiteSpace=wrap;" vertex="1" parent="53">
                    <mxGeometry width="59" height="59" as="geometry"/>
                </mxCell>
                <mxCell id="55" style="vsdxID=7;fillColor=none;gradientColor=none;shape=stencil(nZBLDoAgDERP0z3SIyjew0SURgSD+Lu9kMZoXLhwN9O+tukAlrNpJg1SzDH4QW/URgNYgZTkjA4UkwJUgGXng+6DX1zLfmoymdXo17xh5zmRJ6Q42BWCfc2oJfdAr+Yv+AP9Cb7OJ3H/2JG1HNGz/84klThPVCc=);strokeColor=#bcbec0;strokeWidth=2;spacingTop=-3;spacingBottom=-3;spacingLeft=-3;spacingRight=-3;points=[];labelBackgroundColor=none;rounded=0;html=1;whiteSpace=wrap;" vertex="1" parent="53">
                    <mxGeometry width="59" height="59" as="geometry"/>
                </mxCell>
                <mxCell id="56" style="vsdxID=8;fillColor=#12537c;gradientColor=none;shape=stencil(lZLbbsIwDIafJreVDzleIgbvgUZZqzGKQoHy9mubis4R1USu7MS/88X5Fa8v1e5cKoJLG5vv8l7v20rxhyKqT1UZ67aPFG8Urw9NLL9icz3tU37eDZVD9NPchg5d0hkYJASPlCKkfJtqP68xFWM6dq4wGtk7ZrDeA05ifKoL+LOm445kc3jQ3I6tJ+s0kzdTNefVLFBHNFi9oJsV0wZRoS2jYzLWoQlB8ozXBwQHbIO3kg0kjclg/mMZrwYfKFgG1JILJEc2lUwKoCXKu2PJhvLy1R0tTMxJtqUfXpiSsNMI18ezFQ/18Zic/HRcH+TW7beS7XnzCw==);strokeColor=none;spacingTop=-3;spacingBottom=-3;spacingLeft=-3;spacingRight=-3;points=[];labelBackgroundColor=none;rounded=0;html=1;whiteSpace=wrap;" vertex="1" parent="53">
                    <mxGeometry x="6" y="6" width="46" height="46" as="geometry"/>
                </mxCell>
                <mxCell id="57" style="vsdxID=9;fillColor=none;gradientColor=none;shape=stencil(lZLbbsIwDIafJreVDzleIgbvgUZZqzGKQoHy9mubis4R1USu7MS/88X5Fa8v1e5cKoJLG5vv8l7v20rxhyKqT1UZ67aPFG8Urw9NLL9icz3tU37eDZVD9NPchg5d0hkYJASPlCKkfJtqP68xFWM6dq4wGtk7ZrDeA05ifKoL+LOm445kc3jQ3I6tJ+s0kzdTNefVLFBHNFi9oJsV0wZRoS2jYzLWoQlB8ozXBwQHbIO3kg0kjclg/mMZrwYfKFgG1JILJEc2lUwKoCXKu2PJhvLy1R0tTMxJtqUfXpiSsNMI18ezFQ/18Zic/HRcH+TW7beS7XnzCw==);strokeColor=#FFFFFF;strokeWidth=2;spacingTop=-3;spacingBottom=-3;spacingLeft=-3;spacingRight=-3;points=[];labelBackgroundColor=none;rounded=0;html=1;whiteSpace=wrap;" vertex="1" parent="53">
                    <mxGeometry x="6" y="6" width="46" height="46" as="geometry"/>
                </mxCell>
                <mxCell id="58" style="vsdxID=10;fillColor=#FFFFFF;gradientColor=none;shape=stencil(rZjbcuMgDEC/xq8aQIjLc7f7H51p0ng2m3TS7G7794W6ngRjC2u8bw7oSIBukA4f3g5Pr7vOqLfr5fxr969/vh46/NEZ058Ou0t/TV8dPnb4sD9fdi+X85/T8/D79SlL5q/f579Zw/vAWYRAmTLq43uEIMavkZ8DcOxP94AC6ySABu83yaMD55flkSDobYB2EAwDqHF6LUDgQgEEsIx4BDvRD5FRn1xAWMgrRpgA4/q1kAJjJXu1ARSKAAItOs0asBoQRUAjpsVJ0AbKNAsIuowIG0HpZQszAL8kChBlgAXUGwELntnDDMA7rgYMREbeITi7ST6XCifxwgqgzDbUEJblowaKEgMxpVsJ5ILMOCF6sDR1AjHpJraglar0cwuqtmwdIFOvayeQBsPs4H8k2xQo0xk9qBJIpxYYCzOAH4v4PBAAnQgQWxDvoeqbYsARKCa4cyPYCHgFmstPsFP9zBGVce1SGjCdc6qaaIzzlUtPrdcz+meAVO1IBBBrob7atYCq0cqBFIWi3p+9IJHPMSpNgk1JU1aKui3fCvJ8j1KVBcetSGxgBTDZgq3OVLOhnYqnKePoVmDnl6TBBhFQXRTEAB9HtXwjstO0KHVqLzSA5CQnslADjWJa347EQMMLLlTvogaQ7tnl46IRejPZE8aRRT+Uz83xOrMUF7JcWAGkj9vrfN8fj8Pj/n5++ppPQ8M/Afj4CQ==);strokeColor=none;spacingTop=-3;spacingBottom=-3;spacingLeft=-3;spacingRight=-3;points=[];labelBackgroundColor=none;rounded=0;html=1;whiteSpace=wrap;" vertex="1" parent="53">
                    <mxGeometry x="11" y="11" width="37" height="37" as="geometry"/>
                </mxCell>
                <mxCell id="H0jQTdkzcEfSwbVP08a--56" style="vsdxID=5;fillColor=none;gradientColor=none;strokeColor=none;spacingTop=-1;spacingBottom=-1;spacingLeft=-1;spacingRight=-1;points=[[0.5,1,0],[1,0.5,0],[0.5,0,0],[0,0.5,0],[0.5,0.49,0]];labelBackgroundColor=none;rounded=0;html=1;whiteSpace=wrap;" vertex="1" parent="1">
                    <mxGeometry x="280" y="280" width="115" height="112" as="geometry"/>
                </mxCell>
                <mxCell id="H0jQTdkzcEfSwbVP08a--57" style="vsdxID=6;fillColor=#808285;gradientColor=none;shape=stencil(nZBLDoAgDERP0z3SIyjew0SURgSD+Lu9kMZoXLhwN9O+tukAlrNpJg1SzDH4QW/URgNYgZTkjA4UkwJUgGXng+6DX1zLfmoymdXo17xh5zmRJ6Q42BWCfc2oJfdAr+Yv+AP9Cb7OJ3H/2JG1HNGz/84klThPVCc=);strokeColor=none;spacingTop=-1;spacingBottom=-1;spacingLeft=-1;spacingRight=-1;points=[];labelBackgroundColor=none;rounded=0;html=1;whiteSpace=wrap;" vertex="1" parent="H0jQTdkzcEfSwbVP08a--56">
                    <mxGeometry width="22" height="10" as="geometry"/>
                </mxCell>
                <mxCell id="H0jQTdkzcEfSwbVP08a--58" style="vsdxID=7;fillColor=none;gradientColor=none;shape=stencil(nZBLDoAgDERP0z3SIyjew0SURgSD+Lu9kMZoXLhwN9O+tukAlrNpJg1SzDH4QW/URgNYgZTkjA4UkwJUgGXng+6DX1zLfmoymdXo17xh5zmRJ6Q42BWCfc2oJfdAr+Yv+AP9Cb7OJ3H/2JG1HNGz/84klThPVCc=);strokeColor=#bcbec0;strokeWidth=2;spacingTop=-1;spacingBottom=-1;spacingLeft=-1;spacingRight=-1;points=[];labelBackgroundColor=none;rounded=0;html=1;whiteSpace=wrap;" vertex="1" parent="H0jQTdkzcEfSwbVP08a--56">
                    <mxGeometry width="22" height="10" as="geometry"/>
                </mxCell>
                <mxCell id="H0jQTdkzcEfSwbVP08a--59" style="vsdxID=8;fillColor=#808285;gradientColor=none;shape=stencil(nZBLDoAgDERP0z3SIyjew0SURgSD+Lu9kMZoXLhwN9O+tukAlrNpJg1SzDH4QW/URgNYgZTkjA4UkwJUgGXng+6DX1zLfmoymdXo17xh5zmRJ6Q42BWCfc2oJfdAr+Yv+AP9Cb7OJ3H/2JG1HNGz/84klThPVCc=);strokeColor=none;spacingTop=-1;spacingBottom=-1;spacingLeft=-1;spacingRight=-1;points=[];labelBackgroundColor=none;rounded=0;html=1;whiteSpace=wrap;" vertex="1" parent="H0jQTdkzcEfSwbVP08a--56">
                    <mxGeometry x="22" width="22" height="10" as="geometry"/>
                </mxCell>
                <mxCell id="H0jQTdkzcEfSwbVP08a--60" style="vsdxID=9;fillColor=none;gradientColor=none;shape=stencil(nZBLDoAgDERP0z3SIyjew0SURgSD+Lu9kMZoXLhwN9O+tukAlrNpJg1SzDH4QW/URgNYgZTkjA4UkwJUgGXng+6DX1zLfmoymdXo17xh5zmRJ6Q42BWCfc2oJfdAr+Yv+AP9Cb7OJ3H/2JG1HNGz/84klThPVCc=);strokeColor=#bcbec0;strokeWidth=2;spacingTop=-1;spacingBottom=-1;spacingLeft=-1;spacingRight=-1;points=[];labelBackgroundColor=none;rounded=0;html=1;whiteSpace=wrap;" vertex="1" parent="H0jQTdkzcEfSwbVP08a--56">
                    <mxGeometry x="22" width="22" height="10" as="geometry"/>
                </mxCell>
                <mxCell id="H0jQTdkzcEfSwbVP08a--61" style="vsdxID=10;fillColor=#808285;gradientColor=none;shape=stencil(nZBLDoAgDERP0z3SIyjew0SURgSD+Lu9kMZoXLhwN9O+tukAlrNpJg1SzDH4QW/URgNYgZTkjA4UkwJUgGXng+6DX1zLfmoymdXo17xh5zmRJ6Q42BWCfc2oJfdAr+Yv+AP9Cb7OJ3H/2JG1HNGz/84klThPVCc=);strokeColor=none;spacingTop=-1;spacingBottom=-1;spacingLeft=-1;spacingRight=-1;points=[];labelBackgroundColor=none;rounded=0;html=1;whiteSpace=wrap;" vertex="1" parent="H0jQTdkzcEfSwbVP08a--56">
                    <mxGeometry x="44" width="22" height="10" as="geometry"/>
                </mxCell>
                <mxCell id="H0jQTdkzcEfSwbVP08a--62" style="vsdxID=11;fillColor=none;gradientColor=none;shape=stencil(nZBLDoAgDERP0z3SIyjew0SURgSD+Lu9kMZoXLhwN9O+tukAlrNpJg1SzDH4QW/URgNYgZTkjA4UkwJUgGXng+6DX1zLfmoymdXo17xh5zmRJ6Q42BWCfc2oJfdAr+Yv+AP9Cb7OJ3H/2JG1HNGz/84klThPVCc=);strokeColor=#bcbec0;strokeWidth=2;spacingTop=-1;spacingBottom=-1;spacingLeft=-1;spacingRight=-1;points=[];labelBackgroundColor=none;rounded=0;html=1;whiteSpace=wrap;" vertex="1" parent="H0jQTdkzcEfSwbVP08a--56">
                    <mxGeometry x="44" width="22" height="10" as="geometry"/>
                </mxCell>
                <mxCell id="H0jQTdkzcEfSwbVP08a--63" style="vsdxID=12;fillColor=#4d4d4f;gradientColor=none;shape=stencil(nZBLDoAgDERP0z3SIyjew0SURgSD+Lu9kMZoXLhwN9O+tukAlrNpJg1SzDH4QW/URgNYgZTkjA4UkwJUgGXng+6DX1zLfmoymdXo17xh5zmRJ6Q42BWCfc2oJfdAr+Yv+AP9Cb7OJ3H/2JG1HNGz/84klThPVCc=);strokeColor=none;spacingTop=-1;spacingBottom=-1;spacingLeft=-1;spacingRight=-1;points=[];labelBackgroundColor=none;rounded=0;html=1;whiteSpace=wrap;" vertex="1" parent="H0jQTdkzcEfSwbVP08a--56">
                    <mxGeometry x="11" y="9" width="22" height="10" as="geometry"/>
                </mxCell>
                <mxCell id="H0jQTdkzcEfSwbVP08a--64" style="vsdxID=13;fillColor=none;gradientColor=none;shape=stencil(nZBLDoAgDERP0z3SIyjew0SURgSD+Lu9kMZoXLhwN9O+tukAlrNpJg1SzDH4QW/URgNYgZTkjA4UkwJUgGXng+6DX1zLfmoymdXo17xh5zmRJ6Q42BWCfc2oJfdAr+Yv+AP9Cb7OJ3H/2JG1HNGz/84klThPVCc=);strokeColor=#bcbec0;strokeWidth=2;spacingTop=-1;spacingBottom=-1;spacingLeft=-1;spacingRight=-1;points=[];labelBackgroundColor=none;rounded=0;html=1;whiteSpace=wrap;" vertex="1" parent="H0jQTdkzcEfSwbVP08a--56">
                    <mxGeometry x="11" y="9" width="22" height="10" as="geometry"/>
                </mxCell>
                <mxCell id="H0jQTdkzcEfSwbVP08a--65" style="vsdxID=14;fillColor=#808285;gradientColor=none;shape=stencil(nZBLDoAgDERP0z3SIyjew0SURgSD+Lu9kMZoXLhwN9O+tukAlrNpJg1SzDH4QW/URgNYgZTkjA4UkwJUgGXng+6DX1zLfmoymdXo17xh5zmRJ6Q42BWCfc2oJfdAr+Yv+AP9Cb7OJ3H/2JG1HNGz/84klThPVCc=);strokeColor=none;spacingTop=-1;spacingBottom=-1;spacingLeft=-1;spacingRight=-1;points=[];labelBackgroundColor=none;rounded=0;html=1;whiteSpace=wrap;" vertex="1" parent="H0jQTdkzcEfSwbVP08a--56">
                    <mxGeometry x="33" y="9" width="22" height="10" as="geometry"/>
                </mxCell>
                <mxCell id="H0jQTdkzcEfSwbVP08a--66" style="vsdxID=15;fillColor=none;gradientColor=none;shape=stencil(nZBLDoAgDERP0z3SIyjew0SURgSD+Lu9kMZoXLhwN9O+tukAlrNpJg1SzDH4QW/URgNYgZTkjA4UkwJUgGXng+6DX1zLfmoymdXo17xh5zmRJ6Q42BWCfc2oJfdAr+Yv+AP9Cb7OJ3H/2JG1HNGz/84klThPVCc=);strokeColor=#bcbec0;strokeWidth=2;spacingTop=-1;spacingBottom=-1;spacingLeft=-1;spacingRight=-1;points=[];labelBackgroundColor=none;rounded=0;html=1;whiteSpace=wrap;" vertex="1" parent="H0jQTdkzcEfSwbVP08a--56">
                    <mxGeometry x="33" y="9" width="22" height="10" as="geometry"/>
                </mxCell>
                <mxCell id="H0jQTdkzcEfSwbVP08a--67" style="vsdxID=16;fillColor=#808285;gradientColor=none;shape=stencil(nZBLDoAgDERP0z3SIyjew0SURgSD+Lu9kMZoXLhwN9O+tukAlrNpJg1SzDH4QW/URgNYgZTkjA4UkwJUgGXng+6DX1zLfmoymdXo17xh5zmRJ6Q42BWCfc2oJfdAr+Yv+AP9Cb7OJ3H/2JG1HNGz/84klThPVCc=);strokeColor=none;spacingTop=-1;spacingBottom=-1;spacingLeft=-1;spacingRight=-1;points=[];labelBackgroundColor=none;rounded=0;html=1;whiteSpace=wrap;" vertex="1" parent="H0jQTdkzcEfSwbVP08a--56">
                    <mxGeometry x="55" y="9" width="11" height="10" as="geometry"/>
                </mxCell>
                <mxCell id="H0jQTdkzcEfSwbVP08a--68" style="vsdxID=17;fillColor=none;gradientColor=none;shape=stencil(nZBLDoAgDERP0z3SIyjew0SURgSD+Lu9kMZoXLhwN9O+tukAlrNpJg1SzDH4QW/URgNYgZTkjA4UkwJUgGXng+6DX1zLfmoymdXo17xh5zmRJ6Q42BWCfc2oJfdAr+Yv+AP9Cb7OJ3H/2JG1HNGz/84klThPVCc=);strokeColor=#bcbec0;strokeWidth=2;spacingTop=-1;spacingBottom=-1;spacingLeft=-1;spacingRight=-1;points=[];labelBackgroundColor=none;rounded=0;html=1;whiteSpace=wrap;" vertex="1" parent="H0jQTdkzcEfSwbVP08a--56">
                    <mxGeometry x="55" y="9" width="11" height="10" as="geometry"/>
                </mxCell>
                <mxCell id="H0jQTdkzcEfSwbVP08a--69" style="vsdxID=18;fillColor=#808285;gradientColor=none;shape=stencil(nZBLDoAgDERP0z3SIyjew0SURgSD+Lu9kMZoXLhwN9O+tukAlrNpJg1SzDH4QW/URgNYgZTkjA4UkwJUgGXng+6DX1zLfmoymdXo17xh5zmRJ6Q42BWCfc2oJfdAr+Yv+AP9Cb7OJ3H/2JG1HNGz/84klThPVCc=);strokeColor=none;spacingTop=-1;spacingBottom=-1;spacingLeft=-1;spacingRight=-1;points=[];labelBackgroundColor=none;rounded=0;html=1;whiteSpace=wrap;" vertex="1" parent="H0jQTdkzcEfSwbVP08a--56">
                    <mxGeometry y="9" width="11" height="10" as="geometry"/>
                </mxCell>
                <mxCell id="H0jQTdkzcEfSwbVP08a--70" style="vsdxID=19;fillColor=none;gradientColor=none;shape=stencil(nZBLDoAgDERP0z3SIyjew0SURgSD+Lu9kMZoXLhwN9O+tukAlrNpJg1SzDH4QW/URgNYgZTkjA4UkwJUgGXng+6DX1zLfmoymdXo17xh5zmRJ6Q42BWCfc2oJfdAr+Yv+AP9Cb7OJ3H/2JG1HNGz/84klThPVCc=);strokeColor=#bcbec0;strokeWidth=2;spacingTop=-1;spacingBottom=-1;spacingLeft=-1;spacingRight=-1;points=[];labelBackgroundColor=none;rounded=0;html=1;whiteSpace=wrap;" vertex="1" parent="H0jQTdkzcEfSwbVP08a--56">
                    <mxGeometry y="9" width="11" height="10" as="geometry"/>
                </mxCell>
                <mxCell id="H0jQTdkzcEfSwbVP08a--71" style="vsdxID=20;fillColor=#808285;gradientColor=none;shape=stencil(nZBLDoAgDERP0z3SIyjew0SURgSD+Lu9kMZoXLhwN9O+tukAlrNpJg1SzDH4QW/URgNYgZTkjA4UkwJUgGXng+6DX1zLfmoymdXo17xh5zmRJ6Q42BWCfc2oJfdAr+Yv+AP9Cb7OJ3H/2JG1HNGz/84klThPVCc=);strokeColor=none;spacingTop=-1;spacingBottom=-1;spacingLeft=-1;spacingRight=-1;points=[];labelBackgroundColor=none;rounded=0;html=1;whiteSpace=wrap;" vertex="1" parent="H0jQTdkzcEfSwbVP08a--56">
                    <mxGeometry y="20" width="22" height="10" as="geometry"/>
                </mxCell>
                <mxCell id="H0jQTdkzcEfSwbVP08a--72" style="vsdxID=21;fillColor=none;gradientColor=none;shape=stencil(nZBLDoAgDERP0z3SIyjew0SURgSD+Lu9kMZoXLhwN9O+tukAlrNpJg1SzDH4QW/URgNYgZTkjA4UkwJUgGXng+6DX1zLfmoymdXo17xh5zmRJ6Q42BWCfc2oJfdAr+Yv+AP9Cb7OJ3H/2JG1HNGz/84klThPVCc=);strokeColor=#bcbec0;strokeWidth=2;spacingTop=-1;spacingBottom=-1;spacingLeft=-1;spacingRight=-1;points=[];labelBackgroundColor=none;rounded=0;html=1;whiteSpace=wrap;" vertex="1" parent="H0jQTdkzcEfSwbVP08a--56">
                    <mxGeometry y="20" width="22" height="10" as="geometry"/>
                </mxCell>
                <mxCell id="H0jQTdkzcEfSwbVP08a--73" style="vsdxID=22;fillColor=#808285;gradientColor=none;shape=stencil(nZBLDoAgDERP0z3SIyjew0SURgSD+Lu9kMZoXLhwN9O+tukAlrNpJg1SzDH4QW/URgNYgZTkjA4UkwJUgGXng+6DX1zLfmoymdXo17xh5zmRJ6Q42BWCfc2oJfdAr+Yv+AP9Cb7OJ3H/2JG1HNGz/84klThPVCc=);strokeColor=none;spacingTop=-1;spacingBottom=-1;spacingLeft=-1;spacingRight=-1;points=[];labelBackgroundColor=none;rounded=0;html=1;whiteSpace=wrap;" vertex="1" parent="H0jQTdkzcEfSwbVP08a--56">
                    <mxGeometry x="22" y="20" width="22" height="10" as="geometry"/>
                </mxCell>
                <mxCell id="H0jQTdkzcEfSwbVP08a--74" style="vsdxID=23;fillColor=none;gradientColor=none;shape=stencil(nZBLDoAgDERP0z3SIyjew0SURgSD+Lu9kMZoXLhwN9O+tukAlrNpJg1SzDH4QW/URgNYgZTkjA4UkwJUgGXng+6DX1zLfmoymdXo17xh5zmRJ6Q42BWCfc2oJfdAr+Yv+AP9Cb7OJ3H/2JG1HNGz/84klThPVCc=);strokeColor=#bcbec0;strokeWidth=2;spacingTop=-1;spacingBottom=-1;spacingLeft=-1;spacingRight=-1;points=[];labelBackgroundColor=none;rounded=0;html=1;whiteSpace=wrap;" vertex="1" parent="H0jQTdkzcEfSwbVP08a--56">
                    <mxGeometry x="22" y="20" width="22" height="10" as="geometry"/>
                </mxCell>
                <mxCell id="H0jQTdkzcEfSwbVP08a--75" style="vsdxID=24;fillColor=#4d4d4f;gradientColor=none;shape=stencil(nZBLDoAgDERP0z3SIyjew0SURgSD+Lu9kMZoXLhwN9O+tukAlrNpJg1SzDH4QW/URgNYgZTkjA4UkwJUgGXng+6DX1zLfmoymdXo17xh5zmRJ6Q42BWCfc2oJfdAr+Yv+AP9Cb7OJ3H/2JG1HNGz/84klThPVCc=);strokeColor=none;spacingTop=-1;spacingBottom=-1;spacingLeft=-1;spacingRight=-1;points=[];labelBackgroundColor=none;rounded=0;html=1;whiteSpace=wrap;" vertex="1" parent="H0jQTdkzcEfSwbVP08a--56">
                    <mxGeometry x="44" y="20" width="22" height="10" as="geometry"/>
                </mxCell>
                <mxCell id="H0jQTdkzcEfSwbVP08a--76" style="vsdxID=25;fillColor=none;gradientColor=none;shape=stencil(nZBLDoAgDERP0z3SIyjew0SURgSD+Lu9kMZoXLhwN9O+tukAlrNpJg1SzDH4QW/URgNYgZTkjA4UkwJUgGXng+6DX1zLfmoymdXo17xh5zmRJ6Q42BWCfc2oJfdAr+Yv+AP9Cb7OJ3H/2JG1HNGz/84klThPVCc=);strokeColor=#bcbec0;strokeWidth=2;spacingTop=-1;spacingBottom=-1;spacingLeft=-1;spacingRight=-1;points=[];labelBackgroundColor=none;rounded=0;html=1;whiteSpace=wrap;" vertex="1" parent="H0jQTdkzcEfSwbVP08a--56">
                    <mxGeometry x="44" y="20" width="22" height="10" as="geometry"/>
                </mxCell>
                <mxCell id="H0jQTdkzcEfSwbVP08a--77" style="vsdxID=26;fillColor=#808285;gradientColor=none;shape=stencil(nZBLDoAgDERP0z3SIyjew0SURgSD+Lu9kMZoXLhwN9O+tukAlrNpJg1SzDH4QW/URgNYgZTkjA4UkwJUgGXng+6DX1zLfmoymdXo17xh5zmRJ6Q42BWCfc2oJfdAr+Yv+AP9Cb7OJ3H/2JG1HNGz/84klThPVCc=);strokeColor=none;spacingTop=-1;spacingBottom=-1;spacingLeft=-1;spacingRight=-1;points=[];labelBackgroundColor=none;rounded=0;html=1;whiteSpace=wrap;" vertex="1" parent="H0jQTdkzcEfSwbVP08a--56">
                    <mxGeometry x="11" y="31" width="22" height="10" as="geometry"/>
                </mxCell>
                <mxCell id="H0jQTdkzcEfSwbVP08a--78" style="vsdxID=27;fillColor=none;gradientColor=none;shape=stencil(nZBLDoAgDERP0z3SIyjew0SURgSD+Lu9kMZoXLhwN9O+tukAlrNpJg1SzDH4QW/URgNYgZTkjA4UkwJUgGXng+6DX1zLfmoymdXo17xh5zmRJ6Q42BWCfc2oJfdAr+Yv+AP9Cb7OJ3H/2JG1HNGz/84klThPVCc=);strokeColor=#bcbec0;strokeWidth=2;spacingTop=-1;spacingBottom=-1;spacingLeft=-1;spacingRight=-1;points=[];labelBackgroundColor=none;rounded=0;html=1;whiteSpace=wrap;" vertex="1" parent="H0jQTdkzcEfSwbVP08a--56">
                    <mxGeometry x="11" y="31" width="22" height="10" as="geometry"/>
                </mxCell>
                <mxCell id="H0jQTdkzcEfSwbVP08a--79" style="vsdxID=28;fillColor=#808285;gradientColor=none;shape=stencil(nZBLDoAgDERP0z3SIyjew0SURgSD+Lu9kMZoXLhwN9O+tukAlrNpJg1SzDH4QW/URgNYgZTkjA4UkwJUgGXng+6DX1zLfmoymdXo17xh5zmRJ6Q42BWCfc2oJfdAr+Yv+AP9Cb7OJ3H/2JG1HNGz/84klThPVCc=);strokeColor=none;spacingTop=-1;spacingBottom=-1;spacingLeft=-1;spacingRight=-1;points=[];labelBackgroundColor=none;rounded=0;html=1;whiteSpace=wrap;" vertex="1" parent="H0jQTdkzcEfSwbVP08a--56">
                    <mxGeometry x="33" y="31" width="22" height="10" as="geometry"/>
                </mxCell>
                <mxCell id="H0jQTdkzcEfSwbVP08a--80" style="vsdxID=29;fillColor=none;gradientColor=none;shape=stencil(nZBLDoAgDERP0z3SIyjew0SURgSD+Lu9kMZoXLhwN9O+tukAlrNpJg1SzDH4QW/URgNYgZTkjA4UkwJUgGXng+6DX1zLfmoymdXo17xh5zmRJ6Q42BWCfc2oJfdAr+Yv+AP9Cb7OJ3H/2JG1HNGz/84klThPVCc=);strokeColor=#bcbec0;strokeWidth=2;spacingTop=-1;spacingBottom=-1;spacingLeft=-1;spacingRight=-1;points=[];labelBackgroundColor=none;rounded=0;html=1;whiteSpace=wrap;" vertex="1" parent="H0jQTdkzcEfSwbVP08a--56">
                    <mxGeometry x="33" y="31" width="22" height="10" as="geometry"/>
                </mxCell>
                <mxCell id="H0jQTdkzcEfSwbVP08a--81" style="vsdxID=30;fillColor=#808285;gradientColor=none;shape=stencil(nZBLDoAgDERP0z3SIyjew0SURgSD+Lu9kMZoXLhwN9O+tukAlrNpJg1SzDH4QW/URgNYgZTkjA4UkwJUgGXng+6DX1zLfmoymdXo17xh5zmRJ6Q42BWCfc2oJfdAr+Yv+AP9Cb7OJ3H/2JG1HNGz/84klThPVCc=);strokeColor=none;spacingTop=-1;spacingBottom=-1;spacingLeft=-1;spacingRight=-1;points=[];labelBackgroundColor=none;rounded=0;html=1;whiteSpace=wrap;" vertex="1" parent="H0jQTdkzcEfSwbVP08a--56">
                    <mxGeometry x="55" y="31" width="11" height="10" as="geometry"/>
                </mxCell>
                <mxCell id="H0jQTdkzcEfSwbVP08a--82" style="vsdxID=31;fillColor=none;gradientColor=none;shape=stencil(nZBLDoAgDERP0z3SIyjew0SURgSD+Lu9kMZoXLhwN9O+tukAlrNpJg1SzDH4QW/URgNYgZTkjA4UkwJUgGXng+6DX1zLfmoymdXo17xh5zmRJ6Q42BWCfc2oJfdAr+Yv+AP9Cb7OJ3H/2JG1HNGz/84klThPVCc=);strokeColor=#bcbec0;strokeWidth=2;spacingTop=-1;spacingBottom=-1;spacingLeft=-1;spacingRight=-1;points=[];labelBackgroundColor=none;rounded=0;html=1;whiteSpace=wrap;" vertex="1" parent="H0jQTdkzcEfSwbVP08a--56">
                    <mxGeometry x="55" y="31" width="11" height="10" as="geometry"/>
                </mxCell>
                <mxCell id="H0jQTdkzcEfSwbVP08a--83" style="vsdxID=32;fillColor=#808285;gradientColor=none;shape=stencil(nZBLDoAgDERP0z3SIyjew0SURgSD+Lu9kMZoXLhwN9O+tukAlrNpJg1SzDH4QW/URgNYgZTkjA4UkwJUgGXng+6DX1zLfmoymdXo17xh5zmRJ6Q42BWCfc2oJfdAr+Yv+AP9Cb7OJ3H/2JG1HNGz/84klThPVCc=);strokeColor=none;spacingTop=-1;spacingBottom=-1;spacingLeft=-1;spacingRight=-1;points=[];labelBackgroundColor=none;rounded=0;html=1;whiteSpace=wrap;" vertex="1" parent="H0jQTdkzcEfSwbVP08a--56">
                    <mxGeometry y="31" width="11" height="10" as="geometry"/>
                </mxCell>
                <mxCell id="H0jQTdkzcEfSwbVP08a--84" style="vsdxID=33;fillColor=none;gradientColor=none;shape=stencil(nZBLDoAgDERP0z3SIyjew0SURgSD+Lu9kMZoXLhwN9O+tukAlrNpJg1SzDH4QW/URgNYgZTkjA4UkwJUgGXng+6DX1zLfmoymdXo17xh5zmRJ6Q42BWCfc2oJfdAr+Yv+AP9Cb7OJ3H/2JG1HNGz/84klThPVCc=);strokeColor=#bcbec0;strokeWidth=2;spacingTop=-1;spacingBottom=-1;spacingLeft=-1;spacingRight=-1;points=[];labelBackgroundColor=none;rounded=0;html=1;whiteSpace=wrap;" vertex="1" parent="H0jQTdkzcEfSwbVP08a--56">
                    <mxGeometry y="31" width="11" height="10" as="geometry"/>
                </mxCell>
                <mxCell id="H0jQTdkzcEfSwbVP08a--85" style="vsdxID=34;fillColor=#4d4d4f;gradientColor=none;shape=stencil(nZBLDoAgDERP0z3SIyjew0SURgSD+Lu9kMZoXLhwN9O+tukAlrNpJg1SzDH4QW/URgNYgZTkjA4UkwJUgGXng+6DX1zLfmoymdXo17xh5zmRJ6Q42BWCfc2oJfdAr+Yv+AP9Cb7OJ3H/2JG1HNGz/84klThPVCc=);strokeColor=none;spacingTop=-1;spacingBottom=-1;spacingLeft=-1;spacingRight=-1;points=[];labelBackgroundColor=none;rounded=0;html=1;whiteSpace=wrap;" vertex="1" parent="H0jQTdkzcEfSwbVP08a--56">
                    <mxGeometry y="41" width="22" height="10" as="geometry"/>
                </mxCell>
                <mxCell id="H0jQTdkzcEfSwbVP08a--86" style="vsdxID=35;fillColor=none;gradientColor=none;shape=stencil(nZBLDoAgDERP0z3SIyjew0SURgSD+Lu9kMZoXLhwN9O+tukAlrNpJg1SzDH4QW/URgNYgZTkjA4UkwJUgGXng+6DX1zLfmoymdXo17xh5zmRJ6Q42BWCfc2oJfdAr+Yv+AP9Cb7OJ3H/2JG1HNGz/84klThPVCc=);strokeColor=#bcbec0;strokeWidth=2;spacingTop=-1;spacingBottom=-1;spacingLeft=-1;spacingRight=-1;points=[];labelBackgroundColor=none;rounded=0;html=1;whiteSpace=wrap;" vertex="1" parent="H0jQTdkzcEfSwbVP08a--56">
                    <mxGeometry y="41" width="22" height="10" as="geometry"/>
                </mxCell>
                <mxCell id="H0jQTdkzcEfSwbVP08a--87" style="vsdxID=36;fillColor=#808285;gradientColor=none;shape=stencil(nZBLDoAgDERP0z3SIyjew0SURgSD+Lu9kMZoXLhwN9O+tukAlrNpJg1SzDH4QW/URgNYgZTkjA4UkwJUgGXng+6DX1zLfmoymdXo17xh5zmRJ6Q42BWCfc2oJfdAr+Yv+AP9Cb7OJ3H/2JG1HNGz/84klThPVCc=);strokeColor=none;spacingTop=-1;spacingBottom=-1;spacingLeft=-1;spacingRight=-1;points=[];labelBackgroundColor=none;rounded=0;html=1;whiteSpace=wrap;" vertex="1" parent="H0jQTdkzcEfSwbVP08a--56">
                    <mxGeometry x="22" y="41" width="22" height="10" as="geometry"/>
                </mxCell>
                <mxCell id="H0jQTdkzcEfSwbVP08a--88" style="vsdxID=37;fillColor=none;gradientColor=none;shape=stencil(nZBLDoAgDERP0z3SIyjew0SURgSD+Lu9kMZoXLhwN9O+tukAlrNpJg1SzDH4QW/URgNYgZTkjA4UkwJUgGXng+6DX1zLfmoymdXo17xh5zmRJ6Q42BWCfc2oJfdAr+Yv+AP9Cb7OJ3H/2JG1HNGz/84klThPVCc=);strokeColor=#bcbec0;strokeWidth=2;spacingTop=-1;spacingBottom=-1;spacingLeft=-1;spacingRight=-1;points=[];labelBackgroundColor=none;rounded=0;html=1;whiteSpace=wrap;" vertex="1" parent="H0jQTdkzcEfSwbVP08a--56">
                    <mxGeometry x="22" y="41" width="22" height="10" as="geometry"/>
                </mxCell>
                <mxCell id="H0jQTdkzcEfSwbVP08a--89" style="vsdxID=38;fillColor=#808285;gradientColor=none;shape=stencil(nZBLDoAgDERP0z3SIyjew0SURgSD+Lu9kMZoXLhwN9O+tukAlrNpJg1SzDH4QW/URgNYgZTkjA4UkwJUgGXng+6DX1zLfmoymdXo17xh5zmRJ6Q42BWCfc2oJfdAr+Yv+AP9Cb7OJ3H/2JG1HNGz/84klThPVCc=);strokeColor=none;spacingTop=-1;spacingBottom=-1;spacingLeft=-1;spacingRight=-1;points=[];labelBackgroundColor=none;rounded=0;html=1;whiteSpace=wrap;" vertex="1" parent="H0jQTdkzcEfSwbVP08a--56">
                    <mxGeometry x="44" y="41" width="22" height="10" as="geometry"/>
                </mxCell>
                <mxCell id="H0jQTdkzcEfSwbVP08a--90" style="vsdxID=39;fillColor=none;gradientColor=none;shape=stencil(nZBLDoAgDERP0z3SIyjew0SURgSD+Lu9kMZoXLhwN9O+tukAlrNpJg1SzDH4QW/URgNYgZTkjA4UkwJUgGXng+6DX1zLfmoymdXo17xh5zmRJ6Q42BWCfc2oJfdAr+Yv+AP9Cb7OJ3H/2JG1HNGz/84klThPVCc=);strokeColor=#bcbec0;strokeWidth=2;spacingTop=-1;spacingBottom=-1;spacingLeft=-1;spacingRight=-1;points=[];labelBackgroundColor=none;rounded=0;html=1;whiteSpace=wrap;" vertex="1" parent="H0jQTdkzcEfSwbVP08a--56">
                    <mxGeometry x="44" y="41" width="22" height="10" as="geometry"/>
                </mxCell>
                <mxCell id="H0jQTdkzcEfSwbVP08a--91" value="&lt;div style=&quot;font-size: 1px&quot;&gt;&lt;/div&gt;" style="text;vsdxID=5;fillColor=none;gradientColor=none;strokeColor=none;spacingTop=-1;spacingBottom=-1;spacingLeft=-1;spacingRight=-1;points=[[0.5,1,0],[1,0.5,0],[0.5,0,0],[0,0.5,0],[0.5,0.49,0]];labelBackgroundColor=none;rounded=0;html=1;whiteSpace=wrap;verticalAlign=top;align=center;overflow=width;;html=1;" vertex="1" parent="H0jQTdkzcEfSwbVP08a--56">
                    <mxGeometry x="-6.35" y="54.38" width="74.61" height="38.89" as="geometry"/>
                </mxCell>
                <mxCell id="104" value="ge-0/0/3" style="text;html=1;strokeColor=none;fillColor=none;align=center;verticalAlign=middle;whiteSpace=wrap;rounded=0;rotation=30;" vertex="1" parent="H0jQTdkzcEfSwbVP08a--56">
                    <mxGeometry x="74" y="63.81999999999999" width="60" height="20" as="geometry"/>
                </mxCell>
                <mxCell id="102" value="ge-0/0/2" style="text;html=1;strokeColor=none;fillColor=none;align=center;verticalAlign=middle;whiteSpace=wrap;rounded=0;rotation=-74;" vertex="1" parent="1">
                    <mxGeometry x="240" y="356" width="60" height="20" as="geometry"/>
                </mxCell>
                <mxCell id="103" value="ge-7/0/2" style="text;html=1;strokeColor=none;fillColor=none;align=center;verticalAlign=middle;whiteSpace=wrap;rounded=0;rotation=-30;" vertex="1" parent="1">
                    <mxGeometry x="460" y="349" width="60" height="20" as="geometry"/>
                </mxCell>
                <mxCell id="32" value="RETH3" style="ellipse;whiteSpace=wrap;html=1;strokeColor=#000000;" vertex="1" parent="1">
                    <mxGeometry x="454" y="170" width="180" height="32" as="geometry"/>
                </mxCell>
                <mxCell id="33" value="RETH2" style="ellipse;whiteSpace=wrap;html=1;strokeColor=#000000;" vertex="1" parent="1">
                    <mxGeometry x="240" y="170" width="175" height="32" as="geometry"/>
                </mxCell>
                <mxCell id="63" value="RETH0" style="ellipse;whiteSpace=wrap;html=1;" vertex="1" parent="1">
                    <mxGeometry x="249" y="430" width="177" height="32" as="geometry"/>
                </mxCell>
                <mxCell id="101" value="RETH1" style="ellipse;whiteSpace=wrap;html=1;" vertex="1" parent="1">
                    <mxGeometry x="454" y="430" width="166" height="32" as="geometry"/>
                </mxCell>
                <mxCell id="108" value="DC-Gateway-vMX02" style="text;html=1;strokeColor=default;fillColor=none;align=center;verticalAlign=middle;whiteSpace=wrap;rounded=0;" vertex="1" parent="1">
                    <mxGeometry x="699" y="21.71" width="81" height="48.29" as="geometry"/>
                </mxCell>
                <mxCell id="109" value="AE1" style="ellipse;whiteSpace=wrap;html=1;rotation=15;" vertex="1" parent="1">
                    <mxGeometry x="219.71" y="539.83" width="80" height="28" as="geometry"/>
                </mxCell>
                <mxCell id="111" value="AE1" style="ellipse;whiteSpace=wrap;html=1;rotation=-15;" vertex="1" parent="1">
                    <mxGeometry x="580" y="539.83" width="80" height="28" as="geometry"/>
                </mxCell>
                <mxCell id="112" value="xe-0/0/7" style="text;html=1;strokeColor=none;fillColor=none;align=center;verticalAlign=middle;whiteSpace=wrap;rounded=0;rotation=-75;" vertex="1" parent="1">
                    <mxGeometry x="214.83" y="496.29" width="60" height="20" as="geometry"/>
                </mxCell>
                <mxCell id="113" value="xe-0/0/7" style="text;html=1;strokeColor=none;fillColor=none;align=center;verticalAlign=middle;whiteSpace=wrap;rounded=0;rotation=40;" vertex="1" parent="1">
                    <mxGeometry x="526" y="530" width="60" height="20" as="geometry"/>
                </mxCell>
                <mxCell id="115" value="xe-0/0/8" style="text;html=1;strokeColor=none;fillColor=none;align=center;verticalAlign=middle;whiteSpace=wrap;rounded=0;rotation=-45;" vertex="1" parent="1">
                    <mxGeometry x="290" y="530" width="60" height="20" as="geometry"/>
                </mxCell>
                <mxCell id="116" value="xe-0/0/8" style="text;html=1;strokeColor=none;fillColor=none;align=center;verticalAlign=middle;whiteSpace=wrap;rounded=0;rotation=75;" vertex="1" parent="1">
                    <mxGeometry x="610" y="496.29" width="60" height="20" as="geometry"/>
                </mxCell>
                <mxCell id="119" value="AE0" style="ellipse;whiteSpace=wrap;html=1;" vertex="1" parent="1">
                    <mxGeometry x="415" y="578.1" width="40" height="62.79" as="geometry"/>
                </mxCell>
                <mxCell id="132" value="xe-0/0/5" style="text;html=1;strokeColor=none;fillColor=none;align=center;verticalAlign=middle;whiteSpace=wrap;rounded=0;rotation=0;" vertex="1" parent="1">
                    <mxGeometry x="286" y="578.1" width="60" height="20" as="geometry"/>
                </mxCell>
                <mxCell id="133" value="xe-0/0/5" style="text;html=1;strokeColor=none;fillColor=none;align=center;verticalAlign=middle;whiteSpace=wrap;rounded=0;rotation=0;" vertex="1" parent="1">
                    <mxGeometry x="540" y="580" width="60" height="20" as="geometry"/>
                </mxCell>
                <mxCell id="134" value="xe-0/0/6" style="text;html=1;strokeColor=none;fillColor=none;align=center;verticalAlign=middle;whiteSpace=wrap;rounded=0;rotation=0;" vertex="1" parent="1">
                    <mxGeometry x="286" y="610" width="60" height="20" as="geometry"/>
                </mxCell>
                <mxCell id="135" value="xe-0/0/6" style="text;html=1;strokeColor=none;fillColor=none;align=center;verticalAlign=middle;whiteSpace=wrap;rounded=0;rotation=0;" vertex="1" parent="1">
                    <mxGeometry x="540" y="610" width="60" height="20" as="geometry"/>
                </mxCell>
                <mxCell id="140" value="vSRX-Cluster-node0" style="text;html=1;strokeColor=default;fillColor=none;align=center;verticalAlign=middle;whiteSpace=wrap;rounded=0;" vertex="1" parent="1">
                    <mxGeometry x="219" y="280" width="60" height="50" as="geometry"/>
                </mxCell>
                <mxCell id="142" style="vsdxID=5;fillColor=none;gradientColor=none;strokeColor=none;points=[[0.5,0,0],[0.5,1,0],[0,0.5,0],[1,0.5,0],[0.5,0.5,0]];labelBackgroundColor=none;rounded=0;html=1;whiteSpace=wrap;" vertex="1" parent="1">
                    <mxGeometry x="-20" y="460" width="59" height="59" as="geometry"/>
                </mxCell>
                <mxCell id="143" style="vsdxID=6;fillColor=#4d4d4f;gradientColor=none;shape=stencil(nZBLDoAgDERP0z3SIyjew0SURgSD+Lu9kMZoXLhwN9O+tukAlrNpJg1SzDH4QW/URgNYgZTkjA4UkwJUgGXng+6DX1zLfmoymdXo17xh5zmRJ6Q42BWCfc2oJfdAr+Yv+AP9Cb7OJ3H/2JG1HNGz/84klThPVCc=);strokeColor=none;spacingTop=-3;spacingBottom=-3;spacingLeft=-3;spacingRight=-3;points=[];labelBackgroundColor=none;rounded=0;html=1;whiteSpace=wrap;" vertex="1" parent="142">
                    <mxGeometry width="59" height="59" as="geometry"/>
                </mxCell>
                <mxCell id="144" style="vsdxID=7;fillColor=none;gradientColor=none;shape=stencil(nZBLDoAgDERP0z3SIyjew0SURgSD+Lu9kMZoXLhwN9O+tukAlrNpJg1SzDH4QW/URgNYgZTkjA4UkwJUgGXng+6DX1zLfmoymdXo17xh5zmRJ6Q42BWCfc2oJfdAr+Yv+AP9Cb7OJ3H/2JG1HNGz/84klThPVCc=);strokeColor=#bcbec0;strokeWidth=2;spacingTop=-3;spacingBottom=-3;spacingLeft=-3;spacingRight=-3;points=[];labelBackgroundColor=none;rounded=0;html=1;whiteSpace=wrap;" vertex="1" parent="142">
                    <mxGeometry width="59" height="59" as="geometry"/>
                </mxCell>
                <mxCell id="145" style="vsdxID=8;fillColor=#636567;gradientColor=none;shape=stencil(jZPbbsIwDIafJreVD3EOlxNj74FGWasxikLZ4O3XNAWaiGrLlR3/dj7ZjuLVqdkca0Vw6kP3Wf+0275R/KqI2kNTh7YfLMVrxatdF+qP0J0P2+QfN1EZra/uO1a4pDyBmEJwTS5C8t+S9v0ckhhT2NpK2DpB1J7QTKl4z61gdjCFL5SXhivNimnRRmsvjic1l2rOQEcweHnC9siYLogqbcB58oYBNYDOgcb3RSx48XIL3uAgx5GC5i+Y+LZ4Z5wxCJZzMMg5irYsYnMu/29f4lCIHKDzFtEakpzm+RjmMITaOQHrih4tDXyhZ9lujaiD/djLXbvfp7W+r99glHs8XKU/wOtf);strokeColor=none;spacingTop=-3;spacingBottom=-3;spacingLeft=-3;spacingRight=-3;points=[];labelBackgroundColor=none;rounded=0;html=1;whiteSpace=wrap;" vertex="1" parent="142">
                    <mxGeometry x="6" y="6" width="46" height="46" as="geometry"/>
                </mxCell>
                <mxCell id="146" style="vsdxID=9;fillColor=none;gradientColor=none;shape=stencil(jZPbbsIwDIafJreVD3EOlxNj74FGWasxikLZ4O3XNAWaiGrLlR3/dj7ZjuLVqdkca0Vw6kP3Wf+0275R/KqI2kNTh7YfLMVrxatdF+qP0J0P2+QfN1EZra/uO1a4pDyBmEJwTS5C8t+S9v0ckhhT2NpK2DpB1J7QTKl4z61gdjCFL5SXhivNimnRRmsvjic1l2rOQEcweHnC9siYLogqbcB58oYBNYDOgcb3RSx48XIL3uAgx5GC5i+Y+LZ4Z5wxCJZzMMg5irYsYnMu/29f4lCIHKDzFtEakpzm+RjmMITaOQHrih4tDXyhZ9lujaiD/djLXbvfp7W+r99glHs8XKU/wOtf);strokeColor=#bcbec0;strokeWidth=2;spacingTop=-3;spacingBottom=-3;spacingLeft=-3;spacingRight=-3;points=[];labelBackgroundColor=none;rounded=0;html=1;whiteSpace=wrap;" vertex="1" parent="142">
                    <mxGeometry x="6" y="6" width="46" height="46" as="geometry"/>
                </mxCell>
                <mxCell id="147" style="vsdxID=10;fillColor=#e7e7e7;gradientColor=none;shape=stencil(rZhLctswDIZPoy2GJMDXOk3vkZk4taaunXHcNrl9oapuQlIGhVF2soSPJAj8AOkB7172D8+7wZmXy/n0ffd7fLzsB/wyODce97vzeOGnAe8HvHs6nXffzqefx8f59/PDZDk9/Tj9mkZ4nTlCSH6inHn798ZDzn/ffJ2Bw3j8CBigoAEsxLTJHgOEeNsePSS7DbDh+mYZMJCcCvAQSh8SkGCegbAcH7IwPIfAl/ZGMPaAef1avAFHGl8pgUEV4MFuBMgCogro5LRaBH2glFlCsJUKMhjB6QVAXpJP189rAQJ0GwGCKPiwAMiBawEHWbAPCIE22XdKRRsFPWAh3bbPFoJm/Mxqq9KC67EQgxyBqI6Bd584gzVGNX7tMQVA1Y56C06Y4DOkVgOlmDHWW8SbJvaDFojXEr4MJMCgAtQzqH1ouqYaCB6MFxIpbAaiARuESAPV4wtbVKZ1YBUIa6mH9h68dMhpls6NNwp9eQHgWqfaHF6SNEN7sOsBTZvVA1FUZgtwFFDqyw0wJalWBZtUU5aKqSs3uiRhj9jBeoYgrUg9wQqgcoHAlk2ZS7iU21w9XSyA9wq7vCQLpAOac4IamOSsse+kNn9WaaeNQgfgIAXVDC3Qqabt4UgNdKIQUnMt6gB8zK7kLKfegnr+H2dWxuF6nLmVFzotrAD44f1y/jQeDvPd/uP3+jLPr+Y/AvD+Dw==);strokeColor=none;spacingTop=-3;spacingBottom=-3;spacingLeft=-3;spacingRight=-3;points=[];labelBackgroundColor=none;rounded=0;html=1;whiteSpace=wrap;" vertex="1" parent="142">
                    <mxGeometry x="11" y="11" width="37" height="37" as="geometry"/>
                </mxCell>
                <mxCell id="148" style="vsdxID=5;fillColor=none;gradientColor=none;strokeColor=none;points=[[0.5,0,0],[0.5,1,0],[0,0.5,0],[1,0.5,0],[0.5,0.5,0]];labelBackgroundColor=none;rounded=0;html=1;whiteSpace=wrap;" vertex="1" parent="1">
                    <mxGeometry x="840" y="460" width="59" height="59" as="geometry"/>
                </mxCell>
                <mxCell id="149" style="vsdxID=6;fillColor=#4d4d4f;gradientColor=none;shape=stencil(nZBLDoAgDERP0z3SIyjew0SURgSD+Lu9kMZoXLhwN9O+tukAlrNpJg1SzDH4QW/URgNYgZTkjA4UkwJUgGXng+6DX1zLfmoymdXo17xh5zmRJ6Q42BWCfc2oJfdAr+Yv+AP9Cb7OJ3H/2JG1HNGz/84klThPVCc=);strokeColor=none;spacingTop=-3;spacingBottom=-3;spacingLeft=-3;spacingRight=-3;points=[];labelBackgroundColor=none;rounded=0;html=1;whiteSpace=wrap;" vertex="1" parent="148">
                    <mxGeometry width="59" height="59" as="geometry"/>
                </mxCell>
                <mxCell id="150" style="vsdxID=7;fillColor=none;gradientColor=none;shape=stencil(nZBLDoAgDERP0z3SIyjew0SURgSD+Lu9kMZoXLhwN9O+tukAlrNpJg1SzDH4QW/URgNYgZTkjA4UkwJUgGXng+6DX1zLfmoymdXo17xh5zmRJ6Q42BWCfc2oJfdAr+Yv+AP9Cb7OJ3H/2JG1HNGz/84klThPVCc=);strokeColor=#bcbec0;strokeWidth=2;spacingTop=-3;spacingBottom=-3;spacingLeft=-3;spacingRight=-3;points=[];labelBackgroundColor=none;rounded=0;html=1;whiteSpace=wrap;" vertex="1" parent="148">
                    <mxGeometry width="59" height="59" as="geometry"/>
                </mxCell>
                <mxCell id="151" style="vsdxID=8;fillColor=#636567;gradientColor=none;shape=stencil(jZPbbsIwDIafJreVD3EOlxNj74FGWasxikLZ4O3XNAWaiGrLlR3/dj7ZjuLVqdkca0Vw6kP3Wf+0275R/KqI2kNTh7YfLMVrxatdF+qP0J0P2+QfN1EZra/uO1a4pDyBmEJwTS5C8t+S9v0ckhhT2NpK2DpB1J7QTKl4z61gdjCFL5SXhivNimnRRmsvjic1l2rOQEcweHnC9siYLogqbcB58oYBNYDOgcb3RSx48XIL3uAgx5GC5i+Y+LZ4Z5wxCJZzMMg5irYsYnMu/29f4lCIHKDzFtEakpzm+RjmMITaOQHrih4tDXyhZ9lujaiD/djLXbvfp7W+r99glHs8XKU/wOtf);strokeColor=none;spacingTop=-3;spacingBottom=-3;spacingLeft=-3;spacingRight=-3;points=[];labelBackgroundColor=none;rounded=0;html=1;whiteSpace=wrap;" vertex="1" parent="148">
                    <mxGeometry x="6" y="6" width="46" height="46" as="geometry"/>
                </mxCell>
                <mxCell id="152" style="vsdxID=9;fillColor=none;gradientColor=none;shape=stencil(jZPbbsIwDIafJreVD3EOlxNj74FGWasxikLZ4O3XNAWaiGrLlR3/dj7ZjuLVqdkca0Vw6kP3Wf+0275R/KqI2kNTh7YfLMVrxatdF+qP0J0P2+QfN1EZra/uO1a4pDyBmEJwTS5C8t+S9v0ckhhT2NpK2DpB1J7QTKl4z61gdjCFL5SXhivNimnRRmsvjic1l2rOQEcweHnC9siYLogqbcB58oYBNYDOgcb3RSx48XIL3uAgx5GC5i+Y+LZ4Z5wxCJZzMMg5irYsYnMu/29f4lCIHKDzFtEakpzm+RjmMITaOQHrih4tDXyhZ9lujaiD/djLXbvfp7W+r99glHs8XKU/wOtf);strokeColor=#bcbec0;strokeWidth=2;spacingTop=-3;spacingBottom=-3;spacingLeft=-3;spacingRight=-3;points=[];labelBackgroundColor=none;rounded=0;html=1;whiteSpace=wrap;" vertex="1" parent="148">
                    <mxGeometry x="6" y="6" width="46" height="46" as="geometry"/>
                </mxCell>
                <mxCell id="153" style="vsdxID=10;fillColor=#e7e7e7;gradientColor=none;shape=stencil(rZhLctswDIZPoy2GJMDXOk3vkZk4taaunXHcNrl9oapuQlIGhVF2soSPJAj8AOkB7172D8+7wZmXy/n0ffd7fLzsB/wyODce97vzeOGnAe8HvHs6nXffzqefx8f59/PDZDk9/Tj9mkZ4nTlCSH6inHn798ZDzn/ffJ2Bw3j8CBigoAEsxLTJHgOEeNsePSS7DbDh+mYZMJCcCvAQSh8SkGCegbAcH7IwPIfAl/ZGMPaAef1avAFHGl8pgUEV4MFuBMgCogro5LRaBH2glFlCsJUKMhjB6QVAXpJP189rAQJ0GwGCKPiwAMiBawEHWbAPCIE22XdKRRsFPWAh3bbPFoJm/Mxqq9KC67EQgxyBqI6Bd584gzVGNX7tMQVA1Y56C06Y4DOkVgOlmDHWW8SbJvaDFojXEr4MJMCgAtQzqH1ouqYaCB6MFxIpbAaiARuESAPV4wtbVKZ1YBUIa6mH9h68dMhpls6NNwp9eQHgWqfaHF6SNEN7sOsBTZvVA1FUZgtwFFDqyw0wJalWBZtUU5aKqSs3uiRhj9jBeoYgrUg9wQqgcoHAlk2ZS7iU21w9XSyA9wq7vCQLpAOac4IamOSsse+kNn9WaaeNQgfgIAXVDC3Qqabt4UgNdKIQUnMt6gB8zK7kLKfegnr+H2dWxuF6nLmVFzotrAD44f1y/jQeDvPd/uP3+jLPr+Y/AvD+Dw==);strokeColor=none;spacingTop=-3;spacingBottom=-3;spacingLeft=-3;spacingRight=-3;points=[];labelBackgroundColor=none;rounded=0;html=1;whiteSpace=wrap;" vertex="1" parent="148">
                    <mxGeometry x="11" y="11" width="37" height="37" as="geometry"/>
                </mxCell>
                <mxCell id="156" value="xe-0/0/4" style="text;html=1;strokeColor=none;fillColor=none;align=center;verticalAlign=middle;whiteSpace=wrap;rounded=0;rotation=30;" vertex="1" parent="1">
                    <mxGeometry x="154.83" y="539.83" width="60" height="20" as="geometry"/>
                </mxCell>
                <mxCell id="157" value="xe-0/0/4" style="text;html=1;strokeColor=none;fillColor=none;align=center;verticalAlign=middle;whiteSpace=wrap;rounded=0;rotation=-30;" vertex="1" parent="1">
                    <mxGeometry x="650" y="543.83" width="60" height="20" as="geometry"/>
                </mxCell>
                <mxCell id="160" value="xe-0/0/0" style="text;html=1;strokeColor=none;fillColor=none;align=center;verticalAlign=middle;whiteSpace=wrap;rounded=0;rotation=75;" vertex="1" parent="1">
                    <mxGeometry x="214.83" y="663.71" width="55" height="20" as="geometry"/>
                </mxCell>
                <mxCell id="161" value="xe-0/0/0" style="text;html=1;strokeColor=none;fillColor=none;align=center;verticalAlign=middle;whiteSpace=wrap;rounded=0;rotation=105;" vertex="1" parent="1">
                    <mxGeometry x="612.5" y="663.71" width="55" height="20" as="geometry"/>
                </mxCell>
                <mxCell id="162" value="xe-0/0/1" style="text;html=1;strokeColor=none;fillColor=none;align=center;verticalAlign=middle;whiteSpace=wrap;rounded=0;rotation=35;" vertex="1" parent="1">
                    <mxGeometry x="274.83000000000004" y="650" width="55" height="20" as="geometry"/>
                </mxCell>
                <mxCell id="163" value="xe-0/0/1" style="text;html=1;strokeColor=none;fillColor=none;align=center;verticalAlign=middle;whiteSpace=wrap;rounded=0;rotation=-30;" vertex="1" parent="1">
                    <mxGeometry x="546" y="650" width="55" height="20" as="geometry"/>
                </mxCell>
                <mxCell id="164" value="AE2" style="ellipse;whiteSpace=wrap;html=1;rotation=-35;" vertex="1" parent="1">
                    <mxGeometry x="248.01" y="696.85" width="91" height="28" as="geometry"/>
                </mxCell>
                <mxCell id="165" value="AE2" style="ellipse;whiteSpace=wrap;html=1;rotation=35;" vertex="1" parent="1">
                    <mxGeometry x="540" y="696.85" width="91" height="28" as="geometry"/>
                </mxCell>
                <mxCell id="166" value="AE1" style="ellipse;whiteSpace=wrap;html=1;rotation=15;" vertex="1" parent="1">
                    <mxGeometry x="271.5" y="780" width="123.5" height="28" as="geometry"/>
                </mxCell>
                <mxCell id="167" value="AE1" style="ellipse;whiteSpace=wrap;html=1;rotation=-15;" vertex="1" parent="1">
                    <mxGeometry x="482.25" y="780" width="123.5" height="28" as="geometry"/>
                </mxCell>
                <mxCell id="168" value="xe-0/0/0" style="text;html=1;strokeColor=none;fillColor=none;align=center;verticalAlign=middle;whiteSpace=wrap;rounded=0;rotation=75;" vertex="1" parent="1">
                    <mxGeometry x="252.5" y="820" width="55" height="20" as="geometry"/>
                </mxCell>
                <mxCell id="169" value="xe-0/0/0" style="text;html=1;strokeColor=none;fillColor=none;align=center;verticalAlign=middle;whiteSpace=wrap;rounded=0;rotation=30;" vertex="1" parent="1">
                    <mxGeometry x="491" y="830" width="55" height="20" as="geometry"/>
                </mxCell>
                <mxCell id="170" value="xe-0/0/1" style="text;html=1;strokeColor=none;fillColor=none;align=center;verticalAlign=middle;whiteSpace=wrap;rounded=0;rotation=-40;" vertex="1" parent="1">
                    <mxGeometry x="339" y="830" width="55" height="20" as="geometry"/>
                </mxCell>
                <mxCell id="172" value="xe-0/0/1" style="text;html=1;strokeColor=none;fillColor=none;align=center;verticalAlign=middle;whiteSpace=wrap;rounded=0;rotation=105;" vertex="1" parent="1">
                    <mxGeometry x="573.5" y="820" width="55" height="20" as="geometry"/>
                </mxCell>
                <mxCell id="173" value="vQFX-Core-SW1" style="text;html=1;strokeColor=default;fillColor=none;align=center;verticalAlign=middle;whiteSpace=wrap;rounded=0;" vertex="1" parent="1">
                    <mxGeometry x="160" y="584.5" width="60" height="50" as="geometry"/>
                </mxCell>
                <mxCell id="174" value="vQFX-Core-SW2" style="text;html=1;strokeColor=default;fillColor=none;align=center;verticalAlign=middle;whiteSpace=wrap;rounded=0;" vertex="1" parent="1">
                    <mxGeometry x="660" y="584.49" width="60" height="50" as="geometry"/>
                </mxCell>
                <mxCell id="175" value="vQFX-Core-SW1" style="text;html=1;strokeColor=default;fillColor=none;align=center;verticalAlign=middle;whiteSpace=wrap;rounded=0;" vertex="1" parent="1">
                    <mxGeometry x="220" y="864.5" width="60" height="50" as="geometry"/>
                </mxCell>
                <mxCell id="176" value="vQFX-Acces-SW2" style="text;html=1;strokeColor=default;fillColor=none;align=center;verticalAlign=middle;whiteSpace=wrap;rounded=0;" vertex="1" parent="1">
                    <mxGeometry x="601" y="864.5" width="69" height="50" as="geometry"/>
                </mxCell>
                <mxCell id="177" value="VPN-Hub-vMX01" style="text;html=1;strokeColor=default;fillColor=none;align=center;verticalAlign=middle;whiteSpace=wrap;rounded=0;" vertex="1" parent="1">
                    <mxGeometry x="-20.5" y="430" width="60" height="30" as="geometry"/>
                </mxCell>
                <mxCell id="178" value="VPN-Hub-vMX02" style="text;html=1;strokeColor=default;fillColor=none;align=center;verticalAlign=middle;whiteSpace=wrap;rounded=0;" vertex="1" parent="1">
                    <mxGeometry x="840" y="431" width="60" height="30" as="geometry"/>
                </mxCell>
                <mxCell id="181" value="DC-Gateway-vMX01" style="text;html=1;strokeColor=default;fillColor=none;align=center;verticalAlign=middle;whiteSpace=wrap;rounded=0;" vertex="1" parent="1">
                    <mxGeometry x="80" y="24.5" width="81" height="50" as="geometry"/>
                </mxCell>
                <mxCell id="182" value="ISP1" style="ellipse;shape=cloud;whiteSpace=wrap;html=1;align=center;strokeColor=default;fillColor=#FFFFFF;" vertex="1" parent="1">
                    <mxGeometry x="90" y="-160" width="100" height="60" as="geometry"/>
                </mxCell>
                <mxCell id="184" value="ISP2" style="ellipse;shape=cloud;whiteSpace=wrap;html=1;align=center;strokeColor=default;fillColor=#FFFFFF;" vertex="1" parent="1">
                    <mxGeometry x="660" y="-180" width="100" height="60" as="geometry"/>
                </mxCell>
                <mxCell id="186" value="Site B" style="ellipse;whiteSpace=wrap;html=1;aspect=fixed;strokeColor=default;fillColor=#FFFFFF;" vertex="1" parent="1">
                    <mxGeometry x="-280" y="451.29" width="80" height="80" as="geometry"/>
                </mxCell>
                <mxCell id="187" value="" style="shadow=0;dashed=0;html=1;strokeColor=none;fillColor=#4495D1;labelPosition=center;verticalLabelPosition=bottom;verticalAlign=top;align=center;outlineConnect=0;shape=mxgraph.veeam.vpn;" vertex="1" parent="1">
                    <mxGeometry x="-140" y="464.5" width="80" height="50" as="geometry"/>
                </mxCell>
                <mxCell id="191" value="Site A" style="ellipse;whiteSpace=wrap;html=1;aspect=fixed;strokeColor=default;fillColor=#FFFFFF;" vertex="1" parent="1">
                    <mxGeometry x="1090" y="451.28999999999996" width="80" height="80" as="geometry"/>
                </mxCell>
                <mxCell id="192" value="" style="shadow=0;dashed=0;html=1;strokeColor=none;fillColor=#4495D1;labelPosition=center;verticalLabelPosition=bottom;verticalAlign=top;align=center;outlineConnect=0;shape=mxgraph.veeam.vpn;" vertex="1" parent="1">
                    <mxGeometry x="950" y="461.99999999999994" width="80" height="50" as="geometry"/>
                </mxCell>
            </root>
        </mxGraphModel>
    </diagram>
</mxfile>